<?xml version="1.0" standalone="no"?>
<!DOCTYPE svg PUBLIC "-//W3C//DTD SVG 1.1//EN" "http://www.w3.org/Graphics/SVG/1.1/DTD/svg11.dtd" >
<svg xmlns="http://www.w3.org/2000/svg" xmlns:xlink="http://www.w3.org/1999/xlink" version="1.1">
<metadata>
Created by FontForge 20170731 at Wed Feb 13 14:36:30 2013
 By Aleksey,,,
Copyright (c) Typographer Mediengestaltung, 1999. All rights reserved. 
</metadata>
<defs>
<font id="ArtNouveauCaps" horiz-adv-x="913" >
  <font-face 
    font-family="Art Nouveau Caps"
    font-weight="400"
    font-variant="small-caps"
    font-stretch="normal"
    units-per-em="1000"
    panose-1="2 0 5 4 2 0 0 2 0 3"
    ascent="800"
    descent="-200"
    x-height="751"
    cap-height="770"
    bbox="-29 -179 1009 951"
    underline-thickness="50"
    underline-position="-175"
    unicode-range="U+0020-E004"
  />
<missing-glyph horiz-adv-x="905" 
d="M56 0h793v905h-793v-905zM792 56h-680v793h680v-793z" />
    <glyph glyph-name=".notdef" horiz-adv-x="905" 
d="M56 0h793v905h-793v-905zM792 56h-680v793h680v-793z" />
    <glyph glyph-name=".null" unicode="&#xe000;" horiz-adv-x="0" 
 />
    <glyph glyph-name="nonmarkingreturn" unicode="&#xe001;" horiz-adv-x="238" 
 />
    <glyph glyph-name="space" unicode=" " horiz-adv-x="238" 
 />
    <glyph glyph-name="exclam" unicode="!" horiz-adv-x="400" 
d="M279 758q-10 5 -26 5l-148 -7q-11 0 -29 -8q-17 -11 -17 -21q0 -18 36 -34t47 -48q10 -30 10 -145l-1 -94v-105l-1 -31v-20l4 -29q6 -18 15.5 -29t21 -17.5t22.5 -9t20 -2.5q37 0 57 31t20 82q-29 0 -40 35.5t-11 102.5q0 38 6 101l13 128l12 44q5 25 5 37q0 27 -16 34z
M236 113l-21 3q-17 0 -34 -26q-16 -25 -16 -41q0 -20 12 -36q13 -13 36 -13l22 3q18 4 30 21q13 16 13 40q0 41 -42 49z" />
    <glyph glyph-name="parenleft" unicode="(" horiz-adv-x="398" 
d="M130 721l-46 -91q-14 -26 -27 -63t-25 -82q-11 -45 -16 -93.5t-5 -115.5q0 -20 1.5 -46t5.5 -59t8 -60t9 -47l15 -61q7 -19 24 -19h127l46 1q20 0 20 6l-32 32q-14 15 -37 60q-22 42 -28 70l-15 102q-3 18 -6.5 45.5t-3.5 42.5v33q0 42 3.5 87t10.5 95q13 98 23 119
t15 42q4 22 21 45q17 24 29 25q13 3 72 3q18 0 30.5 16t18.5 43l5 31q-2 11 -22 11l-17 -1h-19q-62 0 -78 -9q-15 -9 -43 -52l-32 -50z" />
    <glyph glyph-name="parenright" unicode=")" horiz-adv-x="333" 
d="M346 274q0 120 -25 213q-24 94 -49 143l-44 90l-58 99q-39 55 -53 63t-76 8h-35q-21 0 -21 -10l6 -33q4 -26 16 -41q13 -16 30 -16q71 0 79 -4q11 -5 24 -26q17 -24 20 -41l14 -42q5 -10 11.5 -39.5t13.5 -80.5t10.5 -95.5t3.5 -85.5q0 -23 -3 -54t-8 -70l-19 -109
q-5 -17 -12 -35t-17 -37q-19 -36 -34 -53l-30 -29q0 -7 13 -7l58 -1h122q21 0 28 31l15 61q9 35 15 82.5t6 89.5z" />
    <glyph glyph-name="comma" unicode="," horiz-adv-x="124" 
d="M99 90l-15 2l-16 2q-21 0 -38.5 -8.5t-17.5 -24.5q2 -8 6 -19.5t8 -20.5q13 -25 13 -48q0 -15 -5.5 -29t-17.5 -33q58 0 84 44q25 43 25 92q0 15 -5.5 26.5t-9.5 12.5z" />
    <glyph glyph-name="hyphen" unicode="-" horiz-adv-x="787" 
d="M269 442l-32 5l-13 3q-3 -4 -10 -7t-36 -8q-2 -2 -13 -12.5t-31 -28.5q-40 -36 -37 -47t23 -11l39 -1h33l19 2q-2 2 -4.5 3t-15.5 4l-20 6q4 2 9 2.5t30 0.5q21 0 51 -4t68 -12t62 -12.5l40 -7.5t26.5 -5t21.5 -4q20 -7 40 -7l15 1q62 0 109 12q47 14 60 35q13 22 13 32
q0 8 -5.5 13t-20.5 5l-40 -8q-22 -4 -32.5 -5t-29.5 -1l-30 1l-26 3l-108 23q-54 12 -92 19t-63 11z" />
    <glyph glyph-name="period" unicode="." horiz-adv-x="291" 
d="M225 142q-8 4 -13.5 5t-19.5 3l-47 2q-20 0 -38 -2t-35 -6q-34 -11 -43.5 -23t-12.5 -24l-3 -25q0 -30 22.5 -50t74.5 -20l17 -1l20 -1q68 0 100 23q31 25 31 52q0 14 -6 22l-16 29q-6 7 -31 16z" />
    <glyph glyph-name="zero" unicode="0" horiz-adv-x="648" 
d="M317 770q-85 0 -149.5 -34t-97.5 -97q-34 -63 -41 -116q-4 -27 -6.5 -49t-3.5 -39t-1.5 -37.5t-0.5 -45.5v-46l1 -43q0 -87 48 -178q49 -91 108 -100q58 -9 78 -9l67 3l89 1q42 1 83.5 18.5t73 61t49.5 119t15 193.5q0 188 -48 227q-24 20 -46.5 34.5t-43.5 24.5
q2 6 2 12l1 13q0 36 -37 61q-38 26 -140 26zM289 716q52 0 81 -9q26 -11 26 -38q0 -18 -10 -25t-15 -17t-5 -20q0 -16 8 -25.5t26 -9.5q15 0 37 7l20 6q13 -2 22.5 -11.5t17.5 -29.5q13 -20 17 -62q3 -14 4.5 -24.5t2.5 -18.5t1 -20v-27l-2 -40l-10 -62q-4 -20 -16.5 -43
t-32.5 -49q-41 -51 -126 -51q-33 0 -67 7q-36 10 -60 34q-42 42 -57.5 101.5t-15.5 140.5q0 116 37 200q38 86 117 86z" />
    <glyph glyph-name="one" unicode="1" horiz-adv-x="462" 
d="M155 646q-14 -8 -26 -13t-21 -7l-46 -14q-24 -7 -32.5 -14t-8.5 -13q0 -11 15.5 -23t34.5 -12q27 0 50 14q12 7 35 22.5t58 39.5v-475l2 -29q-2 -14 -12 -27q-7 -7 -20 -18t-33 -25q-7 -7 -7 -16q0 -13 15 -26q16 -10 38 -10l90 1l77 1l29 1l18 5l19 12q10 7 10 16
q0 13 -37 41q-37 31 -37 53l-2 243l-5 281q0 49 -3 72.5t-4 27.5q-3 8 -11 8q-14 0 -78 -48q-32 -23 -59 -40t-49 -28z" />
    <glyph glyph-name="two" unicode="2" horiz-adv-x="654" 
d="M130 719q-48 -27 -71.5 -68.5t-23.5 -87.5q0 -47 24 -87q25 -39 61 -55q19 -9 37.5 -12.5t35.5 -3.5q55 0 86 19q32 19 44.5 34.5t12.5 39.5l-5 28l-3 28q0 16 11 25l-6 7q-3 4 -22 4q-15 -2 -43 -31q-29 -30 -56 -30q-12 0 -23 3.5t-27 11.5q-30 16 -30 57q0 31 29 60
t55 31q15 3 24 4t12 1l15 1q55 0 96 -32t47 -69q1 -9 4 -24t3 -30q0 -73 -46 -123q-23 -26 -53.5 -55t-70.5 -61q-78 -65 -126.5 -112t-71.5 -93q-14 -24 -19.5 -38.5t-5.5 -22.5q0 -23 36 -35q39 -11 73 -11l95 7h18t29 1h59h144q35 0 56.5 1.5t31.5 3.5q17 5 37 17
q10 7 16 11.5t8 8t2.5 7t0.5 9.5q-1 8 -3.5 18t-6.5 22q-10 26 -24 50l-26 44q-11 24 -11 34q1 9 15 29q-7 8 -13.5 10.5t-17.5 2.5q-15 0 -34 -11q-18 -11 -18 -57q0 -47 -45 -47l-40 4h-56l-68 -3l-56 -2q-27 0 -31 12q6 33 25 52q11 11 47 35t96 62q63 40 102.5 67.5
t58.5 43.5q39 33 46 76l10 52l1 15q0 63 -39 108q-37 44 -81 55q-22 5 -40 8.5t-34 5.5l-74 3q-25 0 -51 -2t-53 -6q-26 -4 -46 -8.5t-33 -11.5z" />
    <glyph glyph-name="three" unicode="3" horiz-adv-x="676" 
d="M118 719l-23 -18l-5 -11q-5 -10 -5 -21q0 -30 27.5 -52t81.5 -22l42 4l31 4l16 -5q10 -5 23 -5l3 22q0 34 -61 44q-18 6 -18 17q-1 5 4 10.5t17 10t33 8t53 4.5q27 0 51.5 -5t43 -14t29.5 -22t11 -29l-1 -11l-8 -31q-9 -24 -97 -54l-165 -54q-27 -8 -27 -27q0 -20 83 -35
q42 -7 75 -16.5t59 -20.5q52 -23 69 -66q18 -44 18 -72q0 -42 -19.5 -68.5t-41.5 -32.5q-11 -4 -56 -4h-12h-16h-19h-69q-79 0 -79 43q0 19 10 40q-25 13 -54 13q-20 1 -40 -9t-35 -26.5t-23 -36.5t-5 -38q0 -28 14 -56.5t36 -51.5q12 -12 24 -19.5t28 -12t38 -6.5t53 -2
l55 1h60q73 0 115 1t54 3q23 3 63 29q19 13 37.5 30.5t32 39.5t22 48.5t8.5 58.5q0 29 -15 86q-13 57 -86 104q-72 46 -252 78q-2 1 -3.5 3t-3.5 4q1 10 99 25l112 22q52 13 85 41t33 66q0 17 -15 55q-14 38 -84.5 55t-185.5 17h-54q-23 0 -51 -2.5t-50 -6.5
q-52 -10 -70 -24z" />
    <glyph glyph-name="four" unicode="4" horiz-adv-x="732" 
d="M402 761l-135 -8q-20 -3 -33 -11.5t-13 -22.5q1 -7 3.5 -14.5t6.5 -17.5q13 -21 16 -34q4 -9 4 -21v-14q0 -26 -20 -64q-10 -19 -28.5 -47.5t-45.5 -66.5l-84 -119l-35 -52q-5 -12 -5 -22q-1 -23 23.5 -44t69.5 -32q14 -2 30 -3t34 -1q22 0 51 1.5t77 6.5q24 2 40.5 3.5
t24.5 2.5q9 1 23 1h33l66 -4l46 -8l39 -2q24 -1 44.5 9.5t35.5 27.5t23 37t6 38q0 16 -4.5 29t-7.5 19q-13 22 -29 30q-7 4 -24.5 9.5t-45.5 12.5l3 -20v-19q0 -9 -6 -22q-6 -14 -15 -18q-8 -4 -53 -4h-20q-11 0 -28 1q-16 1 -29 1h-20l-144 1q-39 0 -57 5q-15 4 -15 19
l6 26l28 60q20 42 41 112l37 123q16 54 32 54q19 0 19 -22l5 -357l71 1l78 1v27q0 17 -1 38q-1 22 -1 37v26l-1 121l1 59q0 11 0.5 20.5t1.5 17.5t2 14t2 9q4 7 25 23q23 20 23 27q-15 17 -51 17q-25 1 -51.5 2t-68.5 1zM458 170q-63 0 -73 -3t-13 -26q-1 -21 -10 -33
q-8 -11 -63 -45q-11 -11 -11 -19q1 -12 15 -24q15 -12 31 -14.5t45 -2.5h50h54q34 0 50 1t27 3q19 5 31 18t12 23q0 14 -39 38q-39 25 -39 43l1 22q0 13 -12.5 16t-55.5 3z" />
    <glyph glyph-name="five" unicode="5" horiz-adv-x="675" 
d="M217 750l-85 3q-40 0 -59.5 -8.5t-19.5 -34.5q0 -11 32 -66q18 -31 28 -51.5t17 -39.5q13 -32 13 -43q-2 -10 -27 -26t-42 -38.5t-17 -45.5q0 -19 11.5 -30t31.5 -11q7 1 15.5 3.5t18.5 6.5q23 10 39 32l29 64l32 4h43q56 0 83 -12q28 -10 58 -36q35 -32 50 -67.5
t15 -72.5q0 -16 -2 -26.5t-6 -23.5q-12 -36 -34.5 -57t-69.5 -17l-39 1l-44 1l-34 -2l-35 -2q-49 0 -49 26l1 12l4 12l30 17q-11 15 -27 28q-13 13 -44 13l-37 -5q-12 -3 -24.5 -13t-22.5 -25.5t-16.5 -34.5t-6.5 -40q0 -60 35 -103q35 -41 55 -46q18 -7 117 -7l101 1h121
q56 0 100 39q45 40 70.5 90.5t25.5 116.5q0 65 -28 126.5t-76 99.5q-50 42 -103 55q-51 16 -114 16q-42 0 -78 -7.5t-58 -9.5l-7 56l-3 32q0 14 3 20q4 6 14 12t26 6l75 -12q61 -12 97 -12q49 0 82 16q35 19 52 51q16 31 16 45q0 33 -61 33l-69 -5q-15 -2 -40 -4.5t-45 -2.5
l-62 -1h-28h-28zM124 434q11 11 19 15l5 -1l-5 -16l-12 -19q-6 -11 -15 -5q-3 2 -4 7q0 8 12 19z" />
    <glyph glyph-name="six" unicode="6" horiz-adv-x="658" 
d="M423 762h-129q-46 0 -83.5 -13.5t-66 -37.5t-49 -56.5t-32.5 -71.5q-12 -38 -19.5 -69.5t-11.5 -55.5t-5.5 -51t-1.5 -57q0 -101 25 -182q25 -83 72 -123q47 -41 68 -48q20 -10 58 -10l38 2l51 4l37 -1l35 -1q48 0 88 18t75 70q36 52 49 96.5t13 94.5q0 105 -63 183
q-62 78 -126 86l-73 9h-21q-99 0 -134 -29q-17 -14 -39 -36.5t-48 -51.5q0 122 41 199t104 77h12q16 0 30 -9l47 -36q37 -31 52 -35q18 -5 34 -5q48 0 84 37t36 79q0 22 -32 22q-22 2 -49 2h-66zM301 481q70 0 123 -21t62 -74t9 -73q0 -50 -27 -93q-26 -44 -67 -55
q-42 -11 -49 -11l-24 -1q-70 0 -116 42q-44 44 -44 113q0 14 3 32.5t7 36.5q12 43 52 73q40 31 71 31z" />
    <glyph glyph-name="seven" unicode="7" horiz-adv-x="660" 
d="M347 750l-120 5l-58 1l-44 1l-21 -2l-31 -5l-30 -11q-13 -7 -13 -26q0 -17 16.5 -41t42.5 -49l51 -48q25 -22 25 -43l-2 -13l-7 -9q-6 -3 -24 -3q2 -8 5 -14l5 -10q7 -9 21 -12l20 -3q27 0 46.5 23t19.5 58l-3 24q-4 18 -11 30l-19 33l-22 30l16 -4l56 -20q24 -8 37 -9
q7 -1 18.5 -1.5t27.5 -0.5q22 0 41 3t36.5 9t35 14.5t38.5 19.5q-30 -48 -50 -82.5t-39 -67.5q-35 -68 -69 -151q-33 -86 -45 -145l-18 -89q-8 -30 -40 -51q-33 -21 -33 -43q0 -12 8.5 -20t25.5 -17q10 -4 16 -6.5t11 -3.5l23 -1l35 3l45 3l36 -2l26 -3l17 -1q15 0 30 3
t28 7q28 12 28 32q0 19 -35 45q-35 27 -38 49q-2 23 -2 36v27l-1 70q0 25 2 49.5t6.5 51.5t11.5 59.5t18 75.5q28 83 73 131q21 23 35.5 39t17.5 21q7 11 7 20q0 14 -17.5 24t-40.5 15q-20 7 -36 7l-106 -7z" />
    <glyph glyph-name="eight" unicode="8" horiz-adv-x="645" 
d="M343 750q-103 0 -178 -21t-85 -52l-15 -40v-15q0 -38 30 -71l41 -40l84 -42q-81 -50 -113 -84q-33 -34 -50 -76q-14 -32 -19.5 -50.5t-7 -31t-1 -22t-0.5 -21.5q0 -57 23.5 -103.5t75.5 -76.5q20 -13 35.5 -17.5t28.5 -4.5l46 8q11 3 18 4t13.5 2t13.5 1h18q33 0 71 -7
l27 -1l31 -1q56 0 100 18q45 19 71 70q26 50 26 103q0 59 -29 122q-14 31 -28.5 53t-29.5 35l-46 40q-10 7 -27.5 17t-43.5 23l87 47q24 18 38.5 33.5t21.5 29.5t9.5 25.5t2.5 22.5q0 51 -55 87q-56 36 -184 36zM274 690l29 2l24 1q37 0 70 -11q32 -13 43 -36.5t11 -43.5
q0 -48 -44 -83q-41 -29 -77 -29h-14q-36 0 -74 28q-19 15 -29.5 27t-15.5 22.5t-6 19.5t-1 18q0 31 20.5 55t63.5 30zM293 430l27 3q29 0 55 -9q44 -12 82 -50q39 -38 39 -63l5 -32v-9q0 -39 -21 -70q-20 -32 -71 -32h-12l-20 2q-12 4 -27 4l-22 1l-49 -4l-50 -2
q-24 0 -53 17q-27 18 -27 82q0 25 9 54q11 27 32 49q20 21 41 36t62 23z" />
    <glyph glyph-name="nine" unicode="9" horiz-adv-x="677" 
d="M350 750h-35q-32 0 -62 -2.5t-53 -7.5q-49 -10 -84 -38q-33 -24 -43 -38q-4 -5 -9.5 -15.5t-13.5 -26.5q-14 -37 -14 -72q0 -68 46 -121q47 -54 118 -69q72 -15 121 -15q109 0 185 64l35 36l-1 -80l-10 -67q-9 -55 -49 -102q-39 -47 -84 -47l-134 1h-26q-28 0 -48 7
q-19 9 -19 30q0 19 17 50h-24l-37 -2q-10 -2 -15 -4t-14 -6q-18 -13 -31.5 -37.5t-13.5 -57.5q0 -29 17 -65q9 -17 25 -31.5t38 -25t48 -17t55 -6.5h19t25 -1t25 -1h18l72 -1q21 0 38 6l44 12q12 4 30.5 14.5t38 29.5t39.5 47.5t35.5 69.5t24.5 96t8 127q0 40 -5 81
t-16 78.5t-29 70.5t-43 59q-54 55 -95 66q-42 11 -114 11zM313 692q78 0 126 -21q50 -21 63 -58q15 -38 15 -60q0 -56 -53 -97q-52 -40 -115 -40q-39 0 -74 17t-52 39q-17 27 -23 47t-6 44q0 26 11 54q10 23 25 37.5t31 23t30 11.5t22 3z" />
    <glyph glyph-name="colon" unicode=":" horiz-adv-x="260" 
d="M164 443q-9 4 -31 4l-23 -3q-16 -3 -20 -10.5t-4 -16.5q5 -26 27 -27l22 -1q32 0 43 13t5 24q-10 14 -19 17zM164 287q-11 3 -31 3l-23 -2q-16 -3 -20 -10.5t-4 -16.5q4 -24 27 -28l22 -1q32 0 43 13.5t5 24.5q-10 14 -19 17z" />
    <glyph glyph-name="semicolon" unicode=";" horiz-adv-x="220" 
d="M124 60q-6 2 -19 2q-16 0 -27 -5.5t-11 -15.5l9 -25q9 -20 9 -32l-4 -19l-11 -21q37 0 54 30q17 29 17 56q0 13 -3 19.5t-14 10.5zM132 152q-7 4 -25 4l-23 -3q-13 -3 -16.5 -8.5t-3.5 -14.5q2 -11 6 -17q10 -5 24 -5h13q27 0 36 10.5t4 20.5q-5 12 -15 13z" />
    <glyph glyph-name="question" unicode="?" horiz-adv-x="591" 
d="M312 761q-110 0 -197 -40q-88 -40 -88 -146v-9l3 -39q3 -32 42 -70q40 -36 101 -36q74 0 106 27l41 40q5 8 -5 28q-10 21 -10 33q3 17 10 27l9 16l-4 15h-19q-11 -1 -17 -5l-20 -19l-8.5 -8.5l-5.5 -5.5l-16 -12t-36 -9q-10 0 -28 5q-26 14 -32 22q-8 16 -8 29t5 28
l15 28q12 15 43 27q32 13 72 13q47 0 78 -22q17 -12 29 -28t19.5 -34t11 -36.5t3.5 -34.5q0 -63 -31 -95q-13 -16 -27.5 -30t-30.5 -28l-62 -51q-19 -18 -31.5 -32t-20 -26t-10.5 -22.5t-3 -22.5q2 -20 7 -38q9 -23 30 -31.5t48 -8.5l33 3q8 2 15.5 4t15.5 4q16 6 31 46
q17 43 33 50l-13 14l-12 3q-12 0 -25 -9l-21 -11l-22 -3l-21 3q-12 4 -12 15q1 13 83 55q82 43 144 111q62 70 62 131q0 8 -1.5 16t-3.5 18l-11 32q-18 57 -79.5 88t-158.5 31zM296 110l-34 -2l-18 -15q-15 -15 -21 -26t-6 -25t9.5 -25t25.5 -14l26 -3q23 0 32 9t17 23
q10 16 10 35q0 18 -12 30.5t-29 12.5z" />
    <glyph glyph-name="A" unicode="A" horiz-adv-x="860" 
d="M579 763q-136 0 -228 -4t-143 -12q-101 -17 -107 -47q-4 -34 48 -49q53 -17 53 -27q0 -17 -9 -17q-6 -2 -10 -5q3 -11 22 -11l24 3q16 3 16 20q-1 6 -4.5 15t-7 17.5t-6.5 16t-3 12.5q2 11 8.5 16.5t32.5 8.5l51 7l44 3q51 0 96 -27q-32 -7 -59.5 -17.5t-53 -26
t-50 -35.5t-51.5 -47q-52 -52 -80.5 -109.5t-28.5 -106.5q0 -52 22 -75q22 -24 51 -33t74 -9q48 0 108 18q30 9 50.5 17t31.5 15l84 59q32 23 52 38t28 23q19 17 23 17q2 -1 2.5 -2.5t0.5 -10.5q1 -10 7 -13.5t12 -3.5q11 0 20 12.5t9 25.5q-1 8 -4 17t-8 16.5t-13.5 12.5
t-20.5 5q-26 0 -52 -20q-29 -20 -56 -47l53 143l19 -54q6 -10 15 -10l15 1l16 -4q13 -3 21 -9q24 -23 24 -48q0 -32 -21 -41q-5 -2 -8.5 -5t-6.5 -5q-1 -1 -2 -1.5t-3 -2.5l16 -52q7 -20 9 -27q1 -4 3 -12.5t4 -22.5l10 -54q1 -2 1.5 -6t2.5 -9v-21q0 -30 -12 -49.5
t-38 -19.5l-30 4l-35 3q-29 0 -46 -11.5t-17 -39.5q0 -23 15 -33q7 -5 9.5 -7.5t5.5 -6.5q0 -2 -3 -5l-8 4q-1 -1 -2.5 -3t-1.5 -8q1 -14 9 -19.5t20 -5.5q17 0 29 9t12 20q0 15 -13 24l-20 17q-5 5 -5.5 7.5t-1.5 5.5q2 11 19 11q9 0 21.5 -5.5t28.5 -20.5q17 -15 39.5 -26
t47.5 -11q26 0 57 22q32 23 32 83q0 47 -20 109q-10 30 -28 78.5t-44 117.5q-53 136 -66 186q-13 49 -13 62q0 25 11 39q15 15 39 15q16 0 42 -9q-26 47 -50 54q-24 9 -126 9zM424 219l22 32q-109 -35 -119 -46l-35 -38l-49 -42q-48 -33 -96 -33q-34 0 -49.5 11t-15.5 26
q2 11 7.5 21t5.5 20q0 12 -11 18t-22 6q-4 -2 -10 -2l-9 -2l19 -15q7 -4 7 -11l-38 -45q-18 -23 -18 -47q0 -38 24 -56.5t66 -18.5q71 0 130 39q58 39 99 75q46 43 92 108zM510 641l-2 47q26 -31 26 -83q0 -39 -16.5 -91t-64.5 -132q-48 -79 -67 -94q-18 -15 -50 -18
q-53 0 -73.5 28t-20.5 71l3 39l10 34l14 28l41 50q18 20 42 38.5t55 34.5q62 34 103 48z" />
    <glyph glyph-name="B" unicode="B" horiz-adv-x="817" 
d="M184 273l-51 -1v-166q0 -15 -8.5 -25t-20.5 -10q-19 1 -34 11q-20 11 -27 11l-13 2q-11 -2 -24 -16q-14 -14 -27 -14l-8 -2v-10q1 -16 20 -16q14 0 22 6q12 6 18 6q16 0 57 -23t64 -23t40.5 12.5t20.5 22.5q5 12 5 24l-5 28l-11 42q-8 25 -12 84zM469 753l-388 -12
q-15 -2 -16 -5l-11 -12l-5 -14q2 -4 5 -7.5t15 -14.5q31 -41 37 -71q7 -28 12 -76l9 -68l3 -27q-1 -4 -7.5 -7.5t-16 -8t-21.5 -11.5t-24 -19q-22 -22 -22 -54q1 -14 8 -31q10 -17 25.5 -23t47.5 -6h14q89 0 164 23q46 14 99.5 32t116.5 41l55 22q79 -77 102 -108
q29 -32 39.5 -69t10.5 -60q0 -29 -11 -53.5t-31.5 -43.5t-50 -29.5t-66.5 -10.5h-42q-90 0 -130 15q-36 17 -41 32l-9 25v15l3 30l4 23q0 13 -6 19q-6 8 -19 12l-57 21q-43 16 -43 26q0 4 9 9.5t9 12.5q0 13 -14 13q-13 -1 -18 -8q-10 -11 -10 -23q0 -20 47 -41
q48 -20 48 -34q-1 -9 -18 -26q-12 -11 -17 -16.5t-12 -17.5q-11 -19 -11 -36q0 -15 9 -29t25 -25t36.5 -18t44.5 -10l93 -11q4 0 9 -0.5t13 -1.5h25h35h32q147 0 209 47q61 48 61 122q0 59 -24 98q-7 11 -14 21.5t-15 20.5q-9 13 -18.5 25t-20.5 25q-29 32 -51 53t-38 31
q-32 21 -61 21l-40 -3q-13 -3 -23.5 -4t-14.5 -1q90 66 133 107q45 43 45 91q0 30 -21 60q-20 30 -56 41q-35 12 -139 12zM232 694h60l69 1q30 0 53.5 -1t41.5 -3.5t33 -7t29 -11.5q16 -21 20 -36q6 -15 7.5 -21t1.5 -23q0 -23 -23 -66q-22 -41 -126 -94
q-52 -26 -95.5 -41.5t-79.5 -20.5l-40 -5l-5 265q0 16 -6 30l-13 27q0 4 20 4zM228 520q-3 2 -6 4.5t-7 4.5q-1 0 -2 1q-4 -3 -10 -10l5 -17q-2 -15 -8 -18t-6 -72q1 -9 10 -6q14 5 26 26q11 27 11 47q0 26 -13 40z" />
    <glyph glyph-name="C" unicode="C" horiz-adv-x="1000" 
d="M451 754h-72l-80 1q-90 0 -110 -16l-81 -108q-50 -65 -69 -123q-11 -35 -16.5 -56.5t-8.5 -43.5q-3 -21 -3.5 -38t-0.5 -26q0 -161 100 -271q100 -111 277 -111q73 0 145 19q38 10 76.5 23.5t75.5 30.5q19 -9 46 -9q29 0 49 12t17 27q-3 16 -29 22q-29 8 -40 47
q-13 34 -29.5 48.5t-36.5 14.5q-27 0 -58 -22t-71 -61q-46 -43 -76 -64q-17 -12 -37.5 -16.5t-48.5 -4.5q-22 0 -50 5q-11 4 -31 11.5t-48 20.5q-55 25 -91 98q-36 72 -36 163q0 23 3 46.5t7 41.5q5 22 14.5 46t23.5 52q28 55 105 100q76 46 185 46l50 -3q28 -3 45.5 -17.5
t17.5 -31.5q0 -15 -14 -32q-15 -17 -79 -59q-65 -44 -65 -80q0 -34 20.5 -46.5t62.5 -12.5q12 2 24 2h26q19 2 32 2h28l11 1l3 -4q0 -4 -8 -18l-6 -14q0 -6 17 -6q18 0 33.5 14t15.5 31q-2 2 -2 8t-8.5 20t-23.5 17q-12 4 -70 4q-19 0 -19 11q1 7 7 13l144 38q83 26 83 110
q0 29 -17 57t-73 59q-58 32 -236 32zM922 273q-18 -7 -34.5 -13t-30.5 -13q-15 -8 -33.5 -20.5t-41.5 -29.5q-45 -33 -45 -43l7 -26q7 -22 16 -22q12 1 54 42q45 35 67 48q29 17 50 17q11 0 20 -5.5t9 -16.5l-4 -22l-4 -22q0 -17 18 -20h12l-3 6q-2 6 -2 14l3 18l12 24
q17 26 17 48q0 39 -56 39zM625 88q6 3 17 3q12 0 12 -5q0 -9 -15 -18l-34 -20q-20 -12 -54 -21l48 41z" />
    <glyph glyph-name="D" unicode="D" horiz-adv-x="893" 
d="M124 754q-16 -3 -23 -8l-18 -22q-13 -16 -13 -23l30 -41q12 -26 12 -78l18 -446q0 -26 -14 -34l-38 -18q-26 -12 -32 -38t-25 -30q-18 -3 -18 -11q0 -6 8 -9l17 -4q43 0 70 15q27 17 38 15q67 -18 117 -18q88 0 98 46l2 16q0 25 -33 48q-32 23 -32 33q1 5 3 9.5t4 9.5
l15 4q11 0 28.5 -14t44.5 -56q14 -20 32.5 -40t41.5 -40q46 -39 130 -39q35 0 89 15q52 13 100 58t76.5 105.5t28.5 136.5q0 67 -30 137.5t-88 133.5t-102.5 90t-81.5 27l-32 -5q-8 -3 -22 -9t-21 -10q73 -38 138 -84q32 -23 60.5 -51.5t51.5 -63.5q47 -71 47 -159t-48 -146
t-127 -58q-54 0 -142 55q-86 55 -138 55q-41 0 -60 -16q-18 -17 -18 -39q2 -16 5.5 -28.5t13.5 -27.5q1 -2 1 -9l-5 -2l-20 4q-18 4 -46 70q-27 64 -27 169l3 74q3 23 6.5 44.5t9.5 46.5q6 27 13 51.5t13 43.5t10.5 31t4.5 15q0 9 -12 12q-16 7 -16 20q5 23 38 28l24 1l28 1
q7 0 17.5 -0.5t40.5 -4.5l55 -10q7 -1 16 -6q6 -2 9 -4l-5 -8l-13 -14q-4 -2 -7.5 -4t-8.5 -3q7 10 7 16l-7 9q-6 6 -13 6q-10 -1 -16 -7.5t-6 -15.5t9 -19.5t21 -10.5t58 29q46 30 63 36q18 6 24.5 7t19.5 1l36 1l25 2q10 4 11 13l2 12q-1 11 -9 14.5t-34 6.5
q-18 4 -61.5 6t-103.5 2q-12 0 -40.5 0.5t-74.5 1.5q-90 3 -139 3z" />
    <glyph glyph-name="E" unicode="E" horiz-adv-x="933" 
d="M379 762l-217 -4l-100 -5q-31 0 -32 -6q-1 -3 -1 -29q0 -32 28 -47q29 -17 29 -109l4 -149q18 10 30.5 15.5t20.5 7.5q19 8 38 8l11 243l278 7q39 0 59 -2t27 -5q17 -8 17 -20q-1 -8 -33 -37t-32 -49l3 -19q4 -12 13.5 -20t33.5 -8t72 9q18 0 18 -12l-7 -22q-4 -9 3 -9
l29 10q20 11 20 17l1 13q0 30 -50 30q-50 3 -50 12q3 9 30 24t61 26q36 15 51 30.5t15 32.5q-2 14 -10.5 24.5t-30.5 21.5q-54 19 -80 19q-10 1 -72 1.5t-177 0.5zM367 574l-13 3q-17 0 -31.5 -13t-14.5 -27q1 -6 5.5 -13l9 -14t8 -13.5t3.5 -10.5q0 -26 -83 -40
q-42 -7 -74 -14.5t-57 -17.5q-50 -18 -57 -85v-12q0 -57 56 -107l104 -78l65 -44l25 -18q-4 -1 -20 -1q-17 0 -29.5 3.5t-23.5 11.5q-23 16 -33 33l-17 24l-16 12l-73 54l-6 -117q1 -10 8.5 -14t16.5 -8.5t17.5 -12.5t12.5 -25q9 -22 29 -22l505 -8q97 0 140.5 20.5
t43.5 62.5q0 33 -31 49q-30 18 -30 25l-1 13q1 13 11 17.5t37 11.5q28 8 40 12t18 9q17 11 17 44q0 22 -10 33q-8 11 -41 22q-31 10 -31 26q0 15 -9 15q-10 -2 -17.5 -7.5t-7.5 -19.5q2 -14 10 -24t8 -19q-3 -14 -86 -31t-83 -64q0 -34 53 -57q54 -23 48 -45
q-3 -19 -23.5 -26t-69.5 -7l-67 3l-96 10q-35 6 -68 13t-69 18q-38 11 -70 29t-58 41q-51 45 -59 63q-6 16 -6 75v52q72 0 124 3t84 10q66 13 78 46t12 44q0 9 -6 30t-61 30q-57 10 -57 16q0 8 12 13l13 8l-1 4q-1 1 -1 2q-3 2 -7 4z" />
    <glyph glyph-name="F" unicode="F" horiz-adv-x="840" 
d="M555 759l-244 -1l-180 -6q-90 0 -94 -9l-3 -9l46 -106q24 -68 30 -131l6 -72q-1 -11 -13 -26q-13 -14 -23.5 -39t-10.5 -57q0 -47 15 -81q8 -16 16.5 -30t17.5 -27l83 -105l-17 -4q-5 0 -6.5 9.5t-9.5 17.5l-61 83l-50 -133q-7 -11 -7 -20q0 -8 21 -8l22 -4h30q13 0 28 2
t29 5l65 16q14 -8 31.5 -14.5t43.5 -6.5q30 0 45 14.5t15 36.5q0 20 -13.5 34t-34.5 14q-23 0 -41 -7l-47 -18l-27 21l-30 31l16 225q0 31 -10 31q-6 0 -19 -6q-34 -10 -45 -29.5t-11 -50.5v-23l1 -21q-13 13 -13 53q0 21 15 54q16 31 93 43l126 11q61 12 61 63q0 24 -12 37
t-27 18q-69 22 -69 48q0 15 27 33q-7 4 -14 4l-16 -4l-21 -13q-14 -11 -14 -26q0 -8 11 -28q12 -20 12 -26q0 -12 -11 -21t-42 -19l-30 -10q-7 69 -12 108.5t-8 50.5l-7 33l-13 42q118 12 154 12l96 3q42 0 78 -3.5t67 -10.5q60 -13 80 -36q20 -22 20 -33q-1 -8 -4.5 -16
t-8.5 -18l-23 -38q-10 -17 -10 -31q0 -22 12 -38.5t34 -16.5h6l19 4l26 6q10 2 20 2q11 0 19 -9q10 -10 28 -13q22 0 22 20q0 10 -8 16q-14 14 -24 19t-26 5l-26 -3l-26 -4q-12 2 -14 4.5t-2 15.5q8 21 23 31.5t46 14.5l61 19q38 17 38 50q0 67 -77 84q-79 17 -200 17z
M303 61q13 6 27 6q21 0 23 -11q0 -9 -8.5 -15t-17.5 -6q-13 0 -25 5.5t-18 10.5q13 10 19 10z" />
    <glyph glyph-name="G" unicode="G" horiz-adv-x="807" 
d="M448 779l-55 3q-129 0 -206 -68q-74 -67 -103 -141q-27 -74 -27 -98q0 -21 47 -38l10 -2q14 2 24 38q11 38 34 86q28 55 97 90q68 35 150 35q60 0 116 -21q55 -20 85 -53.5t30 -71.5q0 -17 -8.5 -25.5t-19.5 -8.5q-14 1 -43 13q-36 14 -50 14q-23 1 -41 -17t-20 -48
q1 -16 7 -25.5t15 -9.5q7 1 7 10q-2 8 -2 15l-1 16q1 13 5.5 17.5t15.5 4.5q15 -2 47 -44q33 -42 80 -42t69 32.5t22 79.5q0 52 -32 108q-31 57 -98 99t-155 52zM33 477l-10 5h-5l5 -13l5 -53q1 -10 10.5 -16.5t9.5 -17.5q0 -51 6.5 -90t19.5 -73q14 -33 35.5 -64.5
t50.5 -60.5q-6 15 -14 36.5t-11 35.5q-2 15 -2 34v48q-8 42 -15 57q-3 19 -3 72q16 -20 17 -30l9 -37q0 -163 28 -218q29 -56 112 -79q84 -23 103 -24q10 -1 19 -2t17 -3h31q68 0 131 28q32 14 55.5 32.5t40 39.5t26.5 42t14 39q6 23 9.5 43t8.5 48q10 54 34 63q23 11 23 18
q0 21 -22.5 29.5t-60.5 8.5q-31 0 -62 -7l-76 -18q-42 -9 -65 -9q-25 0 -34 16t-19 16q-17 -2 -17 -21q0 -11 6 -21t21 -17.5t39.5 -12t60.5 -4.5q56 0 73 -13q19 -12 23 -57q0 -79 -29 -105t-57 -45l40 40q27 33 30 57q5 25 5 34l1 13q0 46 -20 55t-36.5 10.5t-36.5 1.5
q21 -24 29 -43t8 -39q0 -30 -17 -55.5t-41 -40.5q-23 -15 -43 -19.5t-51 -4.5q-46 0 -92 12q-22 7 -45 19.5t-48 29.5q-49 34 -64 75q-7 20 -12 37.5t-7 31.5l-12 75q-9 36 -55 58q-45 23 -56 36q-10 13 -18 17z" />
    <glyph glyph-name="H" unicode="H" horiz-adv-x="887" 
d="M304 756q-90 0 -103 -4q-14 -5 -38 -23q-12 -9 -19 -18l-6 -6l17 -25q6 -7 10.5 -16t8.5 -18q12 -33 18 -60t6 -56q3 -12 4 -28t1 -37v-13v-15v-18v-23v-28v-35v-43l31 60q8 13 15 23t14 18l6 60q1 7 3 24v43q0 87 31 131q31 46 102 88q3 3 3 9q0 2 -6 5zM701 556l-16 2
h-15q-112 0 -240 -65q-129 -65 -172 -132q-44 -68 -51 -130l-18 -141q-12 -13 -74 -13q-63 0 -63 -35q3 -16 8 -21.5t5 -12.5q-2 -8 -8 -8l-12 1l-16 3q-9 0 -9 -8q0 -16 11 -20.5t32 -4.5h13q18 0 24.5 5t6.5 14l-2 19q1 12 13 12l33 -7l55 -14q10 -2 17 -3t12 -2t14 -1.5
t23 -0.5q12 0 24 2t24 5q25 6 25 26q0 6 -6 20l-18 37q-13 27 -21 59q-3 10 -4.5 17.5t-2 14t-1 15t-0.5 22.5q0 84 40 139q41 56 121 91q81 36 159 36q30 -1 56 -7t45.5 -18t29.5 -31.5t9 -47.5q0 -40 -23 -100q-23 -61 -70 -135q-47 -77 -47 -106q0 -17 7 -30.5t17 -23
t21 -14.5t20 -5q21 0 49 19t70 54l18 6q10 -1 10 -10q-2 -8 -2 -17l-1 -14q2 -11 6 -17t16 -6l18 3q3 0 8 5q-2 5 -8 5q-14 0 -14 13q2 10 9 20.5t10 20.5q4 9 4 24q0 16 -9 24q-11 10 -21 12l-21 2q-29 0 -60 -34q-16 -17 -27.5 -27t-19.5 -14l-22 -14l-10 -3q-14 0 -14 20
q0 26 72 121q36 48 61 84t38 60q28 46 28 105q0 32 -12.5 59t-34 47t-51.5 33t-66 16z" />
    <glyph glyph-name="I" unicode="I" horiz-adv-x="327" 
d="M207 770h-10q-27 0 -43.5 -14t-16.5 -41q0 -21 12 -33.5t29 -12.5q13 0 23 5l15 15q6 7 6 17q-1 6 -12 26l6 2q10 -2 17 -12q9 -14 9 -28q0 -23 -24 -48q-24 -30 -70 -30t-51 -14l-3 -15q2 -7 11 -18.5t22 -40.5q7 -16 12 -32t7 -33q4 -15 4 -63v-12v-16v-19v-23
q0 -160 -11 -195q-11 -33 -55 -47q-42 -13 -53 -22q-8 -8 -8 -26q1 -7 3 -12l4 -10l20 -18q1 -1 2.5 -3t5.5 -6q1 0 3 -2q-1 -1 -2.5 -3.5t-3.5 -3.5l-5 -7q1 -4 27 -4q24 3 24 15q0 5 -14 22q-7 8 -9.5 13l-4.5 9q1 4 8 7q5 0 25 -9q10 -6 23 -10.5t25 -7.5q13 -3 20.5 -4
t21.5 -1q31 0 54 9q20 12 20 27q-2 13 -30 56t-28 140v18t-1 25q-1 15 -1 26v20v98q0 61 9 100t30 88q22 48 22 79q0 70 -64 79z" />
    <glyph glyph-name="J" unicode="J" horiz-adv-x="856" 
d="M549 682q21 -22 26 -34t8 -26l10 -32q5 -17 5 -60v-14v-16v-20l-4 -134l-4 -66q0 -14 3 -18q2 -2 9 -8t19 -14q25 -16 40 -16q26 0 26 116l10 226q0 24 5 43.5t8 27.5q6 17 13.5 32.5t15.5 29.5q0 8 -9 14q-8 6 -21 23q-12 18 -32 18l-187 6q-3 0 -10 -3q-2 0 -3 -1
l-1 -20q0 -19 31 -32q32 -12 42 -22zM302 551q-10 5 -18 5q-14 0 -19.5 -8.5t-5.5 -26.5q0 -10 9 -10l18 2q10 -1 10 -12l-6 -29q-8 -19 -13.5 -24t-13.5 -5l-13 2l-20 5q-11 3 -29 3q-71 0 -126 -60q-56 -59 -56 -171q0 -126 81 -193q82 -68 196 -68q92 0 182 40
q93 41 125 89l40 59l7 7t5 3l24 -13q13 -7 47 -7q35 0 40 33q4 33 10 33q19 -19 34 -19t20.5 11t5.5 35q-3 21 -12.5 29.5t-20.5 8.5q-15 -2 -27 -7q-12 -6 -26 -26q-13 -19 -32 -27l-28 -4q-35 0 -68 18l-66 43q-13 0 -64 -72q-50 -71 -72 -96q-22 -23 -57 -37
q-22 -9 -30.5 -11.5t-20.5 -4.5l-31 -3q-55 0 -96 35q-39 34 -39 86l4 31q4 16 6.5 21.5t6.5 13.5q5 10 12.5 18.5t14.5 15t12 11t5 7.5l-7 16q-8 16 -17 21q-10 8 -23 8q-11 -1 -30.5 -21.5t-32.5 -46.5l-3 19q0 21 12 35q11 17 37 23l17 2q50 0 65 -114q16 -114 61 -114
q36 0 42 53q7 53 13 59q10 4 13 -4q5 -9 14 -11q23 0 23 23q-1 11 -10.5 18.5t-23.5 7.5q-35 0 -45 -42q-11 -43 -22 -44q-10 -1 -15.5 10.5t-5.5 30.5l14 46q15 37 18 69l4 42l-2 17l-3 17q32 49 32 88q0 23 -9.5 39t-20.5 22zM538 187q14 8 19 8q1 0 6 -3l-11 -22
q-11 -18 -20 -25t-15 -7q-6 1 -6 7q0 8 8 22t19 20z" />
    <glyph glyph-name="K" unicode="K" horiz-adv-x="838" 
d="M547 769l-13 1q-15 0 -32.5 -14.5t-17.5 -37.5q0 -33 31 -49q13 -9 26 -12l28 -3l22 1h8t9 -1q-2 -5 -11 -14l-29 -28l-40 -43l-160 100q-21 13 -65 32q-13 6 -21 9.5t-11 5.5q-8 4 -15.5 6.5t-13.5 3.5q-12 4 -32 4q-38 0 -50 -20q-11 -20 -11 -25q0 -4 3 -8l32 -16
q27 -14 27 -274l-1 -100v-105l39 77l30 50q11 14 11 28l-3 31l-15 244q31 -7 77 -31l78 -44l44 -27q-70 -75 -115.5 -126t-66.5 -79q-20 -28 -38 -59.5t-32 -68.5q-29 -72 -39 -81q-11 -8 -71 -8h-43q-14 0 -30 -11t-16 -27q0 -17 18 -32q20 -11 20 -19q-1 -7 -8 -10l-7 -6
q4 -2 9 -4t17 -4q27 0 27 20q0 9 -6 20l-8 15q-12 7 -12 13q1 6 14 6l15 -7l22 -10q62 -32 134 -32q45 0 60.5 12.5t15.5 21.5q0 6 -26 32q-25 26 -25 58q0 50 40 115q20 33 44 64t50 60q29 32 50.5 53.5t34.5 32.5q18 16 33 28t34 25q31 24 114 75q42 26 67.5 43t36.5 27
q22 19 22 51q0 19 -13 31t-38 12q-23 0 -80 -19q-32 -12 -55.5 -15.5t-52.5 -3.5q-31 0 -34 9q0 12 2 18q7 6 15 6q7 0 10 -3l12 -14v14q0 13 -5.5 22.5t-19.5 13.5zM631 461l-42 44l-55 -42l58 -53q47 -49 75 -115q28 -63 28 -120q0 -45 -21 -76q-23 -34 -61 -34h-13
q-39 0 -83 32q-44 33 -58 35q-15 5 -24 5q-25 0 -39 -17t-14 -40q2 -13 10 -28.5t8 -22.5q-6 -11 -13 -11q-9 -2 -6 -9q6 -14 25 -14q15 1 24 7q14 8 14 22q0 19 -4 26l-6 18q1 7 11 12q7 3 27 -12l58 -46q39 -28 73.5 -39.5t66.5 -11.5q29 0 53 10q14 5 29.5 12.5
t32.5 18.5q35 23 35 99q0 73 -51 168q-25 48 -59 92.5t-79 89.5z" />
    <glyph glyph-name="L" unicode="L" 
d="M179 638l18 -244l-22 -15q-16 -10 -22 -26q-14 -26 -14 -53q0 -38 18 -66q21 -27 34.5 -35t13.5 -15l-5 -43q-4 -34 -17.5 -48.5t-32.5 -14.5l-18 3q-4 1 -19 11q-10 11 -18 14.5t-17 3.5q-12 1 -19 -8.5t-12.5 -22t-9.5 -24.5t-8 -16l-11 -9q0 -2 9 -6l12 -3q8 1 23 16
q17 17 25 17q5 -1 9.5 -2t6.5 -2l37 -24q34 -17 59 -17q17 0 33.5 8t26.5 24l14 12l9 -6q23 -14 43 -23.5t37 -16.5q36 -12 95 -12l27 1l100 10q75 10 140 65q64 55 64 132l30 11q12 4 16 4h13l17 -2q13 -3 19 -7l12 -10v-9q0 -7 9 -17.5t21 -10.5q13 2 21.5 11t8.5 20
q0 19 -20 37q-11 10 -24.5 15t-31.5 5h-13q-15 0 -39 -6l-44 -15q-11 16 -19 26t-14 15q-10 13 -49 19q-19 4 -26.5 5t-20.5 1l-36 1q-26 0 -26 10q0 14 42 25q21 7 33.5 13t19 12t8 13t1.5 16q0 20 -13 33t-37 13q-19 0 -30.5 -7t-14.5 -17q15 5 22 5q15 0 15 -17t-64 -39
q-63 -23 -75 -45q-11 -24 -11 -38q0 -26 21 -44q22 -18 56 -18q13 0 19 1t19 4l47 14q15 4 22 5.5t21 1.5q43 0 43 -55q0 -20 -6.5 -35t-30.5 -37q-24 -21 -53 -27t-76 -6l141 74l13 10q3 6 3 17q-2 11 -4 14q-1 0 -1 1l-49 -23q-14 -8 -25 -14t-18 -10q-7 -3 -18 -7.5
t-25 -10.5q-41 -18 -102 -18q-67 0 -169 34q16 -27 35.5 -43t43.5 -25t52.5 -11.5t62.5 -2.5q-16 -7 -27.5 -9t-27.5 -2q-36 0 -69.5 16.5t-68.5 48.5q-33 35 -42 73q-9 40 -15 78t-6 84q-24 0 -38.5 -5.5t-14.5 -14.5l3 -90q-8 3 -17.5 18.5t-9.5 33.5q0 35 18 53t44 18
q12 0 23 -5t16 -8q-11 -8 -11 -18q0 -2 0.5 -4l1.5 -6q8 -17 27 -17q14 0 23.5 12t9.5 27l-4 20q-4 10 -15 19q-20 13 -27 15q-8 4 -33 7q0 24 3 54.5t8 60.5l20 109l18 71l19 53h-144q-19 0 -31 -15.5t-13 -31.5l-3 -11q1 -7 25 -18q24 -9 27 -40z" />
    <glyph glyph-name="M" unicode="M" 
d="M396 756q-110 0 -155 -13q-23 -6 -39 -18t-26.5 -26.5t-15.5 -30.5t-5 -30q0 -38 27 -68q28 -28 62 -28q16 1 28 8q15 7 15 23q-5 31 -25 31q-21 0 -21 -20l4 -22q-19 13 -19 36q0 13 5.5 26t14.5 22.5t21 15.5t25 6q65 0 82 -90q17 -91 17 -337q0 -34 -2.5 -66.5
t-6.5 -54.5q-6 -26 -14 -45t-14.5 -32.5t-11.5 -21.5t-5 -11q0 -17 30 -17h11h31l34 -1q32 0 43 3q11 5 11 12l-7 27q-4 11 -7.5 24t-5.5 27l-19 258q0 234 10 280q10 45 61 45q43 0 66 -19q12 -9 23.5 -23t21 -31t17 -35t11.5 -36q2 -10 3 -17.5t2 -14.5t1.5 -19t0.5 -29
q0 -65 -19 -145q-11 -45 -22.5 -85t-24.5 -76l-33 -99q-5 -20 -6 -29t-1 -26q0 -42 15.5 -63t42.5 -21l23 5q14 5 32 18t75 73q58 61 81 58q15 -3 15 -29q0 -14 4 -22t10 -12t12.5 -5.5t11.5 -1.5q18 0 26 11q11 11 8 26q0 20 -15 20q-19 0 -20 -7t-2.5 -10t-3.5 -6
q-6 1 -9 10l11 30q7 14 7 22q0 7 -6.5 19.5t-29.5 12.5q-20 0 -46 -13q-13 -6 -30.5 -18t-39.5 -31q-44 -36 -64 -36q-13 1 -19 16.5t-6 28.5q0 32 45 127q23 48 39.5 86.5t27.5 67.5q23 61 23 140q0 42 -8.5 82.5t-35.5 97.5q-25 57 -85 77q-57 19 -179 19h-83zM185 749
q-24 0 -33 -3t-21 -14q-15 -17 -15 -47l24 -166q2 -11 4 -27t6 -36q1 -8 2.5 -28t4.5 -53q4 -33 5.5 -64.5t1.5 -60.5l-5 -86q-6 -51 -18.5 -69.5t-32.5 -18.5h-15q-16 0 -26.5 -7.5t-19.5 -29.5l-12 -23q-4 1 -6.5 11.5t-13.5 10.5q-24 0 -24 -25q0 -17 12.5 -25t20.5 -8
q14 0 25 11q12 11 22 29q10 19 23 19q4 -2 16 -8.5t32 -19.5q40 -25 64 -25l12 1l22 6q18 7 27 25.5t9 56.5q0 13 -2.5 39.5t-7.5 67.5l-18 136l-11 79v41q0 57 13 89v6q-47 0 -77 30q-28 31 -28 74q0 26 11 53q15 27 36 45l16 7l9 5q-6 1 -13 1.5t-19 0.5z" />
    <glyph glyph-name="N" unicode="N" horiz-adv-x="886" 
d="M481 761q-110 0 -154 -11q-21 -6 -36.5 -16t-27 -22t-19.5 -24.5t-12 -23.5q-4 -14 -5.5 -20.5t-1.5 -23.5q0 -37 19 -60q19 -21 47 -21q21 3 35.5 20t14.5 36q-1 12 -6.5 20t-17.5 8q-11 -2 -14 -8l-3 -11q0 -11 11 -22q-21 0 -21 19q0 36 48 62q50 26 109 26l45 -4
q23 -4 53 -18t50 -33t34.5 -56t14.5 -88q0 -69 -29 -165l-57 -182q-28 -84 -28 -132q0 -19 4.5 -31t12 -19t17.5 -9.5t20 -2.5q13 0 30.5 6.5t36.5 18.5t38 28.5t36 37.5q35 42 52.5 59t33.5 17q8 0 11 -6l4 -9l-7 -20l-6 -25q0 -15 12.5 -23.5t21.5 -8.5t23 8l14 15
q2 4 2 15q0 19 -16 22q-13 0 -16 -5.5t-4 -21.5q-8 8 -8 18q2 15 11.5 32.5t9.5 33.5q-4 24 -28 24q-22 0 -38 -15l-92 -91q-25 -22 -65 -22q-34 4 -34 35q0 21 9 50q10 28 66 153q60 129 75 186t15 113q0 77 -28 120q-28 45 -61 55q-33 12 -130 12h-71zM290 753
q-63 0 -76 -6q-12 -4 -29 -24q-4 -5 -7.5 -9t-5.5 -8t-3 -7l20 -49q5 -17 10 -53.5t10 -92.5q5 -55 8 -110t3 -112q0 -110 -14.5 -156t-35.5 -46q-7 0 -18.5 8.5t-20.5 8.5l-14 -4q-7 -3 -15 -11l-13 -17l-12 -17q-5 -8 -16 -8q16 10 16 25q-2 12 -7 16q-7 7 -18 5
q-12 -4 -20 -15t-8 -26q0 -18 11 -32q16 -14 32 -14t29 10l30 25q16 16 24 16q5 0 34 -23q28 -22 62 -22q42 0 59.5 22.5t17.5 71.5q0 20 -3 46.5t-8 61.5l-22 139q-12 70 -12 88l-1 28l4 41q6 20 10 24q-2 2 -5.5 2.5t-14.5 1.5q-21 6 -38 26.5t-17 60.5q0 25 7 43.5
t20 37.5q29 39 47 54z" />
    <glyph glyph-name="O" unicode="O" horiz-adv-x="753" 
d="M315 743q-24 -15 -42 -27.5t-33 -24.5t-28 -24.5t-26 -27.5q30 -3 44 -11q15 -7 39 -26l46 40q14 9 26.5 15.5t28.5 12.5q60 -10 156 -97q94 -85 109 -149l21 -80q4 -12 4 -44q0 -43 -17 -84.5t-50 -66.5q-32 -24 -71.5 -36.5t-88.5 -12.5q-58 0 -120 23.5t-116 69.5
q-54 47 -92 119q-37 73 -37 131q0 42 10 53l19 21l17 12q-11 -10 -18.5 -22.5t-10.5 -25.5l-6 -26l-1 -17q0 -20 11 -48l21 -49l28 89q8 24 15 41t15 30q16 28 31 28q18 -3 20 -20t2 -46q-2 -23 2 -41.5t11.5 -32t18 -20.5t21.5 -6q15 1 29 12q14 16 23 35l18 38
q11 14 19 14q6 0 11 -6l9 -5q2 3 2.5 5.5t0.5 10.5q-1 15 -11 26q-8 5 -11.5 6t-6.5 2l-18 -8q-13 -7 -28 -47q-2 -5 -4.5 -11.5t-6.5 -11.5t-7.5 -8t-6.5 -1q-7 4 -7 26q1 7 1.5 12t0.5 9v12l1 37l-3 35q-2 11 -8 25.5t-17.5 27.5t-29 21.5t-40.5 7.5q-35 0 -73 -22
q-40 -21 -56 -48q-9 -14 -15 -24.5t-10 -22t-6 -25.5t-2 -33q0 -11 1.5 -23t3.5 -26l16 -57l-3 -46l-1 -39q0 -21 2 -39.5t5 -38.5q7 -39 33 -86q26 -45 55 -63q15 -8 35.5 -17.5t46.5 -20.5q48 -16 139 -16q75 0 145.5 13.5t127.5 46.5q60 36 87 100t27 140q0 24 -2 42.5
t-6 36.5q-6 40 -25.5 93.5t-61.5 114.5l-44 55q-56 62 -108 99.5t-108 58.5l-39 -19zM116 167l-10 27l-3 13q6 -2 27 -39q20 -25 38.5 -44t37.5 -32q37 -26 114 -51q-67 0 -123 29q-53 31 -81 97z" />
    <glyph glyph-name="P" unicode="P" horiz-adv-x="940" 
d="M552 755q-25 3 -44.5 4t-31.5 1l-57 1h-63l-106 -4q-34 -4 -34 -29q1 -10 5.5 -26.5t8.5 -29.5q7 -21 13.5 -62t11.5 -102q8 -66 11 -117t3 -102q0 -64 -2 -105.5t-6 -61.5q-8 -39 -23 -42q-10 2 -45 32q-34 34 -58 34q-13 -2 -27.5 -14.5t-14.5 -30.5q0 -39 -8.5 -56
t-18.5 -17q-13 0 -21 14q-3 -12 3 -24.5t22 -12.5l20 4q16 4 36 36t34 32q13 -2 20 -7q7 -4 36 -38q29 -32 61 -32q52 0 71 46q11 25 15 51.5t4 65.5l-3 54l-3 55q9 -6 18 -9t26 -3q9 0 25.5 3.5t32.5 6.5q12 3 19.5 5t12 3.5t7.5 2t7 0.5q17 0 20 -11l3 -16q0 -14 -20 -14
q12 -12 25 -12q16 0 28.5 12t12.5 32l-4 18q-3 8 -14.5 20.5t-31.5 12.5q-12 0 -43 -9q-16 -4 -27.5 -6t-19.5 -2l-27 4q-13 3 -41 20q-27 16 -27 51q0 16 12 28t24 12q21 0 53 -48t46 -43l8 4l-4 9l-50 70l246 -89q20 -10 36 -13l39 -2q40 0 76 19t57 52q22 34 32 61t10 63
q0 33 -14 70q-13 35 -53 78q-39 44 -106 66q-55 22 -103.5 29.5t-99.5 7.5zM361 691q157 0 243.5 -22.5t116.5 -52.5q31 -29 41.5 -53t10.5 -47q0 -16 -6 -33t-18.5 -30.5t-33 -21.5t-48.5 -6q-18 0 -49.5 3t-77.5 8l-139 18q-19 21 -31 39q-14 22 -19 54q0 6 1 12.5t2 9.5
l7 -7q9 -6 13 -6q8 0 15.5 12.5t7.5 21.5q0 17 -10 24q-11 11 -26 11l-20 -3q-12 -3 -20 -14t-8 -27q0 -24 15 -57.5t45 -75.5q-20 0 -34 -13l-7 46q-1 9 -5.5 19.5t-9.5 23t-9 27t-4 29.5q0 14 6 31q4 9 9.5 14t10.5 9.5t8 10.5t3 16q-5 19 -23 29l3 2l17 -1h23z" />
    <glyph glyph-name="Q" unicode="Q" horiz-adv-x="761" 
d="M217 742q-40 -24 -72 -49t-56 -53t-40 -61t-24 -74q-9 -40 -12.5 -73t-3.5 -57q0 -121 59 -213q61 -96 133 -130q57 -31 87 -35q16 -2 25 -3.5t13 -1.5q4 -1 9 -1h11q-23 29 -38.5 48.5t-18.5 23.5l-65 41q-60 47 -83 107q-12 34 -17 62t-5 60l2 31l14 69q15 55 84 113
q71 59 171 59q82 0 172 -37q5 -8 10 -16.5t10 -18.5q4 -9 10 -25.5t11.5 -39t9 -50.5t3.5 -59q0 -99 -47 -178q-48 -78 -101 -100q-55 -23 -71 -23q-17 0 -27 12l-29 40q-21 29 -35.5 70t-14.5 77q0 32 10 59q5 14 11 23.5t11 14.5l22 21q8 5 26 5q16 -2 22 -7.5t6 -14.5
t-9 -15l-9 -5l-1 13l-2 8q-3 3 -7 5q-11 2 -19 -6t-8 -21q1 -13 6 -25q15 -21 43 -21q16 0 35 10q17 10 26 27t9 32q0 13 -6.5 25.5t-18 22t-26 15t-30.5 5.5q-24 0 -59 -16q-36 -15 -59.5 -60t-23.5 -103q0 -50 17 -103q22 -55 60 -103q39 -48 66 -70q26 -23 77 -49l-51 -9
l-56 -3q-60 0 -107 16q-47 15 -59 41q-11 27 -11 36q0 11 3 17l7 12q-4 3 -17 3q-27 0 -51 -21q-22 -21 -27 -41l-6 -27v-23q0 -20 2 -32.5t5 -25.5q9 -26 30 -35l8 -1q8 2 8 19q2 10 5.5 17.5t7.5 12.5q20 11 30 11q7 0 54 -14q46 -15 94 -24t100 -9q74 0 139 17
q63 16 78 41q15 24 15 31q0 16 -16.5 26t-39.5 10l-91 2q-32 1 -69 24q45 18 78.5 36.5t59 38t43.5 39.5t33 40q25 38 34 72q13 34 21 99q23 27 30 41q5 9 6 15t1 18l-1 20q0 22 -3 33q-4 13 -27 61q-22 50 -111 100q-44 25 -79 40t-64 23.5t-52 11t-42 2.5q-26 0 -43.5 -3
t-35.5 -7q-19 -5 -35.5 -10.5t-30.5 -12.5q19 27 68 49q28 12 50.5 17t48.5 5l32 -3l29 -8q14 -5 33 -20q10 -8 17 -15t11 -12q17 -5 32.5 -11.5t29.5 -13.5l65 -35q-16 35 -37.5 63t-57.5 53q-36 27 -85.5 42t-101.5 15q-42 0 -78 -9.5t-66 -26.5z" />
    <glyph glyph-name="R" unicode="R" horiz-adv-x="814" 
d="M477 765l-285 -8q-6 -4 -17 -13l-21 -18l20 -40q8 -20 14.5 -54.5t11.5 -82.5t7.5 -121.5t2.5 -174.5q0 -54 -2 -88.5t-5 -51.5q-7 -34 -27 -34q-13 2 -20 25q-7 24 -25.5 32t-37.5 8q-28 0 -42.5 -14.5t-14.5 -28.5q1 -14 5 -23l20 -28q-13 7 -22 7q-22 0 -22 -26
q0 -21 13.5 -30.5t26.5 -9.5q16 0 27.5 11t11.5 28q0 9 -11 34q-11 27 -11 42q0 16 17 19q22 0 22 -25l-4 -39q0 -26 13 -42.5t34 -16.5l155 3l-7 295l205 134q7 5 9 7.5t4 5.5q0 5 -12 13l-18 14q-9 7 -24 14l-55 -38l-119 -75l-1 247l9 76q43 6 88 6l103 1q57 0 80 -20
t23 -49q-1 -8 -2 -15.5t-3 -14.5q-3 -12 -19 -37q-15 -25 -38 -25q-9 1 -32 12q-6 3 -16.5 9t-31.5 14q-29 11 -49 14q-24 -14 -50 -27t-54 -26q109 -11 171 -39q62 -27 123 -110q60 -82 83.5 -144t23.5 -110q0 -57 -23 -69q-24 -11 -35 -11q-22 0 -52 41q-29 42 -60 42
q-16 0 -25 -4.5t-13 -12t-4.5 -18t-0.5 -22.5q-33 -4 -30 -29q0 -18 8.5 -23t18.5 -5q11 0 22 7t14 16l3 13q0 9 -6 26l-6 21q0 9 12 12q25 4 42 -66q18 -68 54 -82q37 -14 47 -14l10 1l15 1q42 7 74 39t32 116q0 54 -18 112t-58 121q-23 35 -38.5 56.5t-23.5 31.5l-55 58
q119 95 119 175v12q-13 70 -73 76q-30 4 -73.5 5.5t-101.5 1.5z" />
    <glyph glyph-name="S" unicode="S" horiz-adv-x="734" 
d="M424 769q-79 0 -140 -11q-49 -5 -92.5 -18t-76 -32t-51.5 -42t-18 -49q0 -34 45 -68q43 -33 171 -91q67 -31 110.5 -52.5t75.5 -40.5q62 -38 81 -80q21 -44 21 -70q0 -38 -25 -66q-24 -27 -47 -27q-16 0 -23 9l6 -2q6 -2 10 -2q13 0 16 14l2 11q0 13 -9 18t-20 5
q-16 0 -24 -5q-7 -2 -16 -13.5t-9 -23.5q-3 -18 23.5 -34.5t77.5 -17.5q42 0 80 15t62 40q24 26 33 46.5t9 46.5q0 23 -10 43q-25 52 -144 112l-231 114q-110 61 -102 108q6 40 64 56q57 16 138 16l35 -1l44 -5q36 -5 46.5 -11t10.5 -21q-1 -16 -55 -33q-52 -16 -52 -59
q0 -21 17.5 -39.5t39.5 -18.5q19 0 34 15q9 9 13 12q1 1 5 3q4 -1 7 -15q6 -15 17 -15q12 2 18 13.5t6 27.5q0 24 -13 36t-20 12q-14 0 -26 -32q-14 -32 -21 -32q-6 1 -13 8t-7 24l1 14q3 10 13 25q10 16 79 16t80 23q10 20 10 32q0 45 -69 78q-68 34 -187 34zM226 310
q-4 16 -11 16q-12 0 -15 -18q-4 -25 20 -40q25 -15 25 -21q0 -14 -4 -15q-2 -1 -30.5 -5l-85.5 -12q-111 -14 -111 -103q0 -58 77 -93q76 -33 197 -33q24 0 65 3.5t101 10.5q120 14 190 69q71 57 71 131l-5 28q-5 -20 -11 -35t-11 -25q-10 -19 -36.5 -43t-58.5 -39
q-16 -8 -34 -11t-45 -3q-17 0 -45 5l-29 6q-13 -2 -31 -13q-10 -6 -27.5 -11.5t-40 -9t-48 -6t-51.5 -2.5q-57 0 -102 17q-43 19 -43 51q1 15 18 38q11 14 45 24t88 10q114 10 114 69q0 28 -12.5 37.5t-33.5 9.5l-26 -3l-32 -2q-28 0 -32 18z" />
    <glyph glyph-name="T" unicode="T" horiz-adv-x="786" 
d="M285 758q-93 -7 -167 -46q-72 -38 -86 -61t-14 -40q0 -34 33 -56q17 -11 37 -22t44 -22q48 -23 48 -38l-5 -16v-7q3 1 7 3q5 2 9 4.5t8 4.5q23 14 30 22q8 14 8 24q-1 10 -14 34q-12 22 -12 35q0 14 11.5 28.5t51.5 37.5q31 16 58.5 22.5t56 8t59 0.5t67.5 1
q102 0 115 -8q7 -5 9 -7.5t4 -5.5q0 -5 -12 -5l-127 6l-93 8q-33 0 -65 -8.5t-61 -26.5l-17 -16q4 -2 5 -2q13 -3 30 -6q36 -8 54 -69q19 -60 19 -269q0 -45 -1 -67t-3 -43q-4 -32 -21 -61q-16 -28 -27.5 -40t-18.5 -17q0 -1 1 -2t7 -3l48 -23q39 -19 138 -19q39 0 71 6.5
t55.5 19t36.5 31.5t13 45q0 51 -41 51q-14 0 -30 -6q-21 -8 -34 -8q-24 0 -24 20q0 10 8 24q7 7 9 8.5t5 2.5q3 -4 3 -15q3 -13 20 -13q14 3 19 17q4 15 -8 23.5t-30 8.5q-15 0 -28.5 -5.5t-24 -14.5t-17 -20t-6.5 -23q1 -14 13 -29q14 -12 34 -18l28 -9q8 -5 8 -11
q0 -8 -9 -17l-16 -9q-3 -1 -23 -1q-68 0 -85 92q-8 47 -12.5 103.5t-4.5 123.5q0 178 31 203t238 25q12 0 22 2t20 6q21 9 21 18q0 25 -31 41q-13 7 -39 18.5t-63 26.5t-71 24.5t-70 14.5t-86 8t-116 3z" />
    <glyph glyph-name="U" unicode="U" horiz-adv-x="840" 
d="M62 674q-4 -9 -6 -14.5t-3.5 -9.5t-2 -8t-1.5 -11l-15 -88q-5 -37 -8 -73t-3 -71q0 -94 20 -145q10 -25 27.5 -56.5t42.5 -71.5q50 -78 124 -113q72 -34 132 -34q63 0 118 26l87 67l38 -20q22 -13 40 -33q21 -21 34 -21q12 2 15 17l9 55q7 32 7 128q0 44 -2.5 91t-7.5 98
q-5 52 -9.5 93t-9.5 72l-15 83q0 7 3 15l30 -9q12 -4 32 -4l38 5q27 6 34 16q6 9 19 55l12 18q7 6 20 6l13 2l-7 18q-9 14 -24 14q-21 0 -33 -30q-12 -29 -25 -41.5t-35 -12.5q-19 0 -39 5l-91 33q-56 14 -66 14q-9 0 -9 -6l9 -21q5 -9 11 -21t12 -28q7 -15 13.5 -37.5
t11.5 -52.5q11 -61 11 -116q0 -61 -10.5 -114.5t-30.5 -104.5q-41 -102 -80 -131q-21 -17 -36 -26t-26 -12q-24 -8 -52 -8q-65 0 -127 47q-60 47 -65 83q45 -48 86 -67q39 -19 132 -19h35q31 0 47 10q17 11 40 50q-150 0 -178 3q-32 4 -88 33q-57 33 -103 127
q-24 49 -34.5 94.5t-10.5 93.5q0 70 26 110q14 20 31 26t41 6l20 -2l32 -1q42 0 53 35l13 31l12 22q-1 5 -6 8t-11 3t-36 -18q-29 -17 -43 -14q-4 2 -9 4l-10 4q-8 4 -14 6.5t-10 4.5q-26 15 -66 15q-12 0 -22 -3.5t-18.5 -12.5t-16 -25t-16.5 -41zM647 203l9 22.5t7 19.5
l8 40l6 -131l-4 -44l-53 32z" />
    <glyph glyph-name="V" unicode="V" horiz-adv-x="773" 
d="M36 690l2 -55l19 -91q16 -72 71 -151q54 -78 154 -193q101 -115 101 -146q-1 -8 -3 -15t-4 -15q-8 -17 -28 -17q-13 1 -24 7q-12 9 -32 51q-10 21 -25.5 30t-37.5 9q-38 0 -56 -45q-17 -44 -28 -38q11 -23 27 -23q17 2 32.5 15t22.5 24q10 12 23 11l59 -63q36 -33 59 -34
l42 -4q40 0 62.5 18t22.5 47q0 42 -95 146q-50 53 -81.5 89t-54.5 63q-41 51 -66 115q-17 42 -24 78q-10 46 -10 100q0 28 9 47.5t20 19.5q11 -1 33 -17q21 -15 53 -15q16 0 28.5 6t21 13.5t13 15t4.5 11.5l1 17q0 21 -12.5 36t-30.5 13q-28 -6 -28 -24q2 -17 12.5 -25
t13.5 -11q-1 -7 -19 -18l-21 -2q-26 0 -63 35q-36 35 -61.5 48.5t-44.5 13.5q-24 0 -40.5 -20.5t-16.5 -56.5zM652 711l-45 -96q-75 -151 -117 -248.5t-56 -139.5q-9 -27 -13.5 -42t-7.5 -27l38 -43l48 -60v64q0 76 16 140q16 66 78 179q61 112 132 222q35 55 56 84.5
t27 34.5q12 10 25 33t13 47q0 43 -42 43q-19 -2 -31.5 -6t-25.5 -4q-16 0 -20 9t-1 18q3 -13 7 -16t14 -1q1 0 8 4q1 0 3.5 2t4.5 11q3 15 -5 23.5t-23 8.5t-27 -12.5t-12 -32.5q0 -30 15 -49q17 -16 19 -27l3 -15q0 -24 -26 -24q-15 1 -23 8l-12 9l-2 -3l3 -16l4 -15
q0 -6 -6 -21z" />
    <glyph glyph-name="W" unicode="W" horiz-adv-x="824" 
d="M684 760l-14 6l-16 3q-19 0 -39 -17.5t-34 -48.5q-13 -30 -27.5 -44t-21.5 -17h-12q2 2 9 6t7 21q0 25 -25 25q-26 -5 -31 -22l-3 -19q0 -19 12.5 -29.5t23.5 -13.5l19 -3q27 0 56 24l33 38q16 19 34 19q21 0 36.5 -27t15.5 -67q0 -42 -1.5 -71.5t-3.5 -46.5l-27 -118
q-12 -45 -25.5 -86.5t-29.5 -79.5q-34 -81 -99 -187q48 0 71 3q26 5 43 13q19 9 60 42q41 34 50 34q12 0 18.5 -7t6.5 -25q-3 7 -11 10q-7 5 -17 5q-14 0 -25 -11q-7 -10 -7 -21q0 -14 10 -23.5t24 -9.5l20 4q17 6 27 19q12 16 12 37q-3 33 -22.5 47.5t-41.5 12.5
q-15 0 -42 -7t-54 -21l74 184q6 16 14 43t19 69q10 37 16.5 64.5t9.5 46.5q6 21 9.5 44t6.5 50l10 70l2 16q0 19 -11.5 25t-45.5 6q-27 0 -37 13q-6 8 -13 13.5t-13 8.5zM150 753q-17 9 -36 9q-39 0 -67.5 -34.5t-28.5 -103.5q0 -23 3.5 -49t9.5 -53.5t14.5 -55t18.5 -52.5
q21 -51 64 -121q45 -74 90 -131q46 -58 46 -72q0 -10 -12 -41q-14 -32 -42 -32q-31 5 -31 53q0 11 2 23.5t5 29.5l7 35q0 14 -6.5 25t-16.5 21l-4 4q-7 0 -13 -32q-20 -62 -20 -106q0 -49 20.5 -74.5t49.5 -25.5l27 3q19 3 41 29.5t35 80.5l12 44q-74 106 -74 116
q1 10 20 49q20 38 77 38q59 0 105 -58q48 -58 65 -99q19 -42 33 -117q52 105 52 122l-3 12l-19 44q-9 18 -20 35.5t-26 36t-34.5 39.5t-44.5 46q-51 52 -58 133q-8 85 -13 94q-6 11 -19 11q-11 -2 -17 -10.5t-3 -22.5l11 -47q1 -4 1.5 -9.5t0.5 -13.5q0 -26 -13 -42
l-102 -132l-32 -47q-20 40 -34 71.5t-22 54.5q-9 24 -14 43.5t-10 46.5q-2 14 -3 22.5t-2 12.5v20q0 28 11 46t36 18q22 0 42 -9l30 -11l24 -3q15 1 23 8q9 9 9 27q0 9 -3.5 18t-7 16.5t-7 14t-3.5 9.5q0 7 6 7l13 -2q13 0 13 15q4 27 -25 27q-27 0 -30 -33q-3 -32 -13 -33
q-8 0 -37 26q-29 25 -51 36z" />
    <glyph glyph-name="X" unicode="X" horiz-adv-x="766" 
d="M215 783q-22 0 -29.5 -9t-7.5 -25l4 -23q-54 15 -83 15q-59 0 -59 -59q0 -35 25 -64q25 -30 118 -89l66 -44l-81 -95q-23 -31 -42 -61t-33 -61q-28 -60 -38 -100.5t-10 -72.5q0 -65 33 -90q34 -25 72 -25q37 0 63 50q30 52 57 78l-26 -2q-5 -2 -14 -15l-18 -24
q-11 -11 -22 -11q-22 3 -31 23t-9 42q0 45 31 109.5t104 148.5l47 49q58 -41 91.5 -65t43.5 -32q14 -13 39 -40.5t61 -72.5l15 -28l11 -27q6 -13 7 -21.5t1 -25.5q0 -22 -7 -41.5t-18.5 -34t-27.5 -23t-34 -8.5l-33 2q-29 5 -29 47q0 44 -19 44q-14 -1 -29 -8q-2 -1 -5 -2
t-8 -3q-2 -1 -4 -1t-5 -1l-12 -1q-11 1 -13 4l-3 15l-2 12l-4 -2q-7 -5 -10 -10.5t-3 -19.5t6 -22.5t14 -8.5q5 1 12 4.5t15 8.5t13 7.5l9 4.5q8 -2 11 -16q6 -53 22 -69q13 -19 32 -27t37 -8q24 0 48.5 11t35.5 25q12 14 29 20t41 6l18 -2l26 -1q15 0 22 6.5t7 31.5
q0 55 -43 129q-43 76 -112 130q-35 28 -72 55.5t-79 55.5l-150 100q-37 25 -60.5 41.5t-34.5 25.5q-25 22 -25 51q0 27 34 27q39 7 60 10.5t31 6.5q19 6 22 32q-14 -18 -30 -18q-16 1 -28 10q-15 12 -15 26q0 17 11 17q10 1 10 8t-11 14.5t-26 5.5zM477 657l-153 -103
q-27 -20 -27 -24q0 -9 34 -25l27 -20q5 -3 9 -6t8 -5q2 0 3 -1l33 23q36 25 117 53l153 53q55 25 51 57q-4 25 -54 25l-32 -3q-17 0 -27 5q-10 7 -10 19q2 13 9 20l7 -12q4 -4 11 -4q10 0 12 9t2 14q0 9 -8 14q-12 6 -30 6q-19 0 -34.5 -5.5t-26.5 -14t-17 -18.5t-6 -19
q0 -23 36 -33q37 -13 40 -21q3 -12 -5.5 -16t-27.5 -4q-28 0 -50 8q-10 4 -20.5 11t-23.5 17z" />
    <glyph glyph-name="Y" unicode="Y" horiz-adv-x="860" 
d="M364 746l-13 4q-3 1 -15 1q-21 0 -34.5 -9t-13.5 -27q0 -23 -21 -23q-9 1 -25.5 5.5t-29.5 8.5q-42 13 -69 13l-33 -4q-19 -7 -35 -19q-22 -16 -34 -42.5t-12 -63.5q0 -85 70 -176q69 -90 190 -139l169 -62l-50 -50q-124 -127 -167 -185q-45 -62 -49 -92v-9q0 -21 10 -30
t29 -9q14 0 40 8l80 27q57 21 82 21q28 0 56 -28q15 -16 34.5 -30.5t40.5 -14.5q36 0 62 48q6 18 11 22l9 3l8 -3l10 -2q7 1 12 6l3 13q0 21 -18 21q-25 0 -37 -25q-17 -32 -27 -36q-8 -8 -21 -8q-24 0 -34 30l-22 59q-5 6 -14 6l-26 -4l-33 -5q-14 -2 -24 15q-10 16 -7 30
l14 40l17 23q34 55 103 96l126 68q35 19 60.5 39.5t42.5 42.5q19 26 29.5 61.5t10.5 78.5q0 35 -12 70q-6 18 -18 33.5t-28.5 26.5t-35.5 17.5t-39 6.5q-58 0 -78 -29q-19 -30 -20 -40l-3 -21q0 -21 11 -35q13 -15 28 -15q16 0 25.5 11t9.5 25q-1 12 -8 17l-10 4l-16 -6h-7
l5 16q6 13 20 21t27 8q16 -2 22.5 -6t8.5 -14q7 -16 -44 -81l-81 -100l-42 -51l-91 26l-67 26q-51 20 -115 89q-63 69 -63 122q0 25 14 42q16 22 28 26q13 7 30 7l35 -5q14 -2 24.5 -3t15.5 -1l20 2q27 8 31 12l7 11q-8 0 -17 2t-17 7t-14 13.5t-9 22.5q0 28 9 35t17 8l-2 2
zM827 740q-16 10 -35 10q-24 0 -86 -28t-79 -28t-18 4l5 15q-2 7 -8.5 12.5t-14.5 5.5q-15 0 -27 -15.5t-12 -40.5q3 -16 7.5 -25t12 -13.5t19.5 -5.5t30 -1h21q59 0 70 -15q10 -14 40 -27q30 -12 44 -32l6.5 -6.5t7.5 -8.5q1 -1 1.5 -2t2.5 -3q6 0 15 20q6 13 10 23.5
t9 29.5q9 31 9 62q0 23 -7 41t-23 28zM671 331l79 102l3 -25q0 -25 -11 -51.5t-36 -54.5q-14 -14 -28.5 -25.5t-30.5 -19.5l-59 -27z" />
    <glyph glyph-name="Z" unicode="Z" horiz-adv-x="777" 
d="M746 750q-8 20 -13 20q-4 0 -17 -5l-96 -45q-12 -5 -17 -9q-1 -1 -5 -3q1 -7 22 -18l28 -15l38 20l24 12q5 0 5 -17v-26v-12q0 -16 -6 -16q-7 0 -83 41q-77 43 -171 68q-98 26 -179 26q-54 -2 -100.5 -11.5t-81 -27t-54 -43t-19.5 -58.5q0 -29 20 -51.5t74 -30.5
q27 -3 43.5 -6.5t24.5 -8t10 -10t1 -14.5q-6 -16 -24 -16l-18 4q3 -17 31 -17l21 4l23 14q17 17 17 34q0 28 -26 42q-26 15 -31.5 23t-5.5 16l2 13l11 19q11 14 47 24q33 10 86 10q20 0 44 -3t42 -7q23 -5 43.5 -11.5t37.5 -14.5q-66 -49 -106.5 -80t-55.5 -45
q-17 -16 -41 -41t-53 -60q-64 -74 -91 -115l-50 -83q-12 16 -12 45v18q-10 -3 -19.5 -16t-9.5 -32q0 -39 19 -62q-20 -37 -30.5 -73.5t-10.5 -81.5v-11l1 -14q71 -13 114 -13q18 0 38 2t44 5l3 33q0 32 -17 71q48 -35 156 -73q105 -37 198 -37q33 0 63 6t53 20t36.5 36.5
t13.5 54.5q0 37 -14 54q-14 18 -54 44q-41 29 -41 36q1 5 5 10.5t8.5 11t8 10t3.5 7.5q0 10 -12 24q-11 15 -21 17t-13 2q-8 0 -10 -1q15 -14 15 -22q-2 -11 -24 -20q-30 -18 -30 -32q1 -8 11 -23l23 -29l22 -28q8 -11 8 -19q0 -13 -18 -26q-18 -12 -36.5 -16.5t-49.5 -4.5
q-16 0 -32 2t-36 6l-98 25q-31 8 -57.5 17t-49.5 18l-72 30q-4 -1 -8 -10l-10 -18l-15 -39q5 -6 10 -16t8.5 -21t6 -22t2.5 -18q-11 -4 -25 -4l-28 1q3 24 9 45l19 58q13 35 60 112q51 81 137.5 174t224.5 189l37 -22l38 -24q37 -24 67 -24q24 0 37 21t13 75v20l-1 40z" />
    <glyph glyph-name="a" unicode="a" horiz-adv-x="860" 
d="M579 763q-136 0 -228 -4t-143 -12q-101 -17 -107 -47q-4 -34 48 -49q53 -17 53 -27q0 -17 -9 -17q-6 -2 -10 -5q3 -11 22 -11l24 3q16 3 16 20q-1 6 -4.5 15t-7 17.5t-6.5 16t-3 12.5q2 11 8.5 16.5t32.5 8.5l51 7l44 3q51 0 96 -27q-32 -7 -59.5 -17.5t-53 -26
t-50 -35.5t-51.5 -47q-52 -52 -80.5 -109.5t-28.5 -106.5q0 -52 22 -75q22 -24 51 -33t74 -9q48 0 108 18q30 9 50.5 17t31.5 15l84 59q32 23 52 38t28 23q19 17 23 17q2 -1 2.5 -2.5t0.5 -10.5q1 -10 7 -13.5t12 -3.5q11 0 20 12.5t9 25.5q-1 8 -4 17t-8 16.5t-13.5 12.5
t-20.5 5q-26 0 -52 -20q-29 -20 -56 -47l53 143l19 -54q6 -10 15 -10l15 1l16 -4q13 -3 21 -9q24 -23 24 -48q0 -32 -21 -41q-5 -2 -8.5 -5t-6.5 -5q-1 -1 -2 -1.5t-3 -2.5l16 -52q7 -20 9 -27q1 -4 3 -12.5t4 -22.5l10 -54q1 -2 1.5 -6t2.5 -9v-21q0 -30 -12 -49.5
t-38 -19.5l-30 4l-35 3q-29 0 -46 -11.5t-17 -39.5q0 -23 15 -33q7 -5 9.5 -7.5t5.5 -6.5q0 -2 -3 -5l-8 4q-1 -1 -2.5 -3t-1.5 -8q1 -14 9 -19.5t20 -5.5q17 0 29 9t12 20q0 15 -13 24l-20 17q-5 5 -5.5 7.5t-1.5 5.5q2 11 19 11q9 0 21.5 -5.5t28.5 -20.5q17 -15 39.5 -26
t47.5 -11q26 0 57 22q32 23 32 83q0 47 -20 109q-10 30 -28 78.5t-44 117.5q-53 136 -66 186q-13 49 -13 62q0 25 11 39q15 15 39 15q16 0 42 -9q-26 47 -50 54q-24 9 -126 9zM424 219l22 32q-109 -35 -119 -46l-35 -38l-49 -42q-48 -33 -96 -33q-34 0 -49.5 11t-15.5 26
q2 11 7.5 21t5.5 20q0 12 -11 18t-22 6q-4 -2 -10 -2l-9 -2l19 -15q7 -4 7 -11l-38 -45q-18 -23 -18 -47q0 -38 24 -56.5t66 -18.5q71 0 130 39q58 39 99 75q46 43 92 108zM510 641l-2 47q26 -31 26 -83q0 -39 -16.5 -91t-64.5 -132q-48 -79 -67 -94q-18 -15 -50 -18
q-53 0 -73.5 28t-20.5 71l3 39l10 34l14 28l41 50q18 20 42 38.5t55 34.5q62 34 103 48z" />
    <glyph glyph-name="b" unicode="b" horiz-adv-x="817" 
d="M184 273l-51 -1v-166q0 -15 -8.5 -25t-20.5 -10q-19 1 -34 11q-20 11 -27 11l-13 2q-11 -2 -24 -16q-14 -14 -27 -14l-8 -2v-10q1 -16 20 -16q14 0 22 6q12 6 18 6q16 0 57 -23t64 -23t40.5 12.5t20.5 22.5q5 12 5 24l-5 28l-11 42q-8 25 -12 84zM469 753l-388 -12
q-15 -2 -16 -5l-11 -12l-5 -14q2 -4 5 -7.5t15 -14.5q31 -41 37 -71q7 -28 12 -76l9 -68l3 -27q-1 -4 -7.5 -7.5t-16 -8t-21.5 -11.5t-24 -19q-22 -22 -22 -54q1 -14 8 -31q10 -17 25.5 -23t47.5 -6h14q89 0 164 23q46 14 99.5 32t116.5 41l55 22q79 -77 102 -108
q29 -32 39.5 -69t10.5 -60q0 -29 -11 -53.5t-31.5 -43.5t-50 -29.5t-66.5 -10.5h-42q-90 0 -130 15q-36 17 -41 32l-9 25v15l3 30l4 23q0 13 -6 19q-6 8 -19 12l-57 21q-43 16 -43 26q0 4 9 9.5t9 12.5q0 13 -14 13q-13 -1 -18 -8q-10 -11 -10 -23q0 -20 47 -41
q48 -20 48 -34q-1 -9 -18 -26q-12 -11 -17 -16.5t-12 -17.5q-11 -19 -11 -36q0 -15 9 -29t25 -25t36.5 -18t44.5 -10l93 -11q4 0 9 -0.5t13 -1.5h25h35h32q147 0 209 47q61 48 61 122q0 59 -24 98q-7 11 -14 21.5t-15 20.5q-9 13 -18.5 25t-20.5 25q-29 32 -51 53t-38 31
q-32 21 -61 21l-40 -3q-13 -3 -23.5 -4t-14.5 -1q90 66 133 107q45 43 45 91q0 30 -21 60q-20 30 -56 41q-35 12 -139 12zM232 694h60l69 1q30 0 53.5 -1t41.5 -3.5t33 -7t29 -11.5q16 -21 20 -36q6 -15 7.5 -21t1.5 -23q0 -23 -23 -66q-22 -41 -126 -94
q-52 -26 -95.5 -41.5t-79.5 -20.5l-40 -5l-5 265q0 16 -6 30l-13 27q0 4 20 4zM228 520q-3 2 -6 4.5t-7 4.5q-1 0 -2 1q-4 -3 -10 -10l5 -17q-2 -15 -8 -18t-6 -72q1 -9 10 -6q14 5 26 26q11 27 11 47q0 26 -13 40z" />
    <glyph glyph-name="c" unicode="c" horiz-adv-x="1000" 
d="M451 754h-72l-80 1q-90 0 -110 -16l-81 -108q-50 -65 -69 -123q-11 -35 -16.5 -56.5t-8.5 -43.5q-3 -21 -3.5 -38t-0.5 -26q0 -161 100 -271q100 -111 277 -111q73 0 145 19q38 10 76.5 23.5t75.5 30.5q19 -9 46 -9q29 0 49 12t17 27q-3 16 -29 22q-29 8 -40 47
q-13 34 -29.5 48.5t-36.5 14.5q-27 0 -58 -22t-71 -61q-46 -43 -76 -64q-17 -12 -37.5 -16.5t-48.5 -4.5q-22 0 -50 5q-11 4 -31 11.5t-48 20.5q-55 25 -91 98q-36 72 -36 163q0 23 3 46.5t7 41.5q5 22 14.5 46t23.5 52q28 55 105 100q76 46 185 46l50 -3q28 -3 45.5 -17.5
t17.5 -31.5q0 -15 -14 -32q-15 -17 -79 -59q-65 -44 -65 -80q0 -34 20.5 -46.5t62.5 -12.5q12 2 24 2h26q19 2 32 2h28l11 1l3 -4q0 -4 -8 -18l-6 -14q0 -6 17 -6q18 0 33.5 14t15.5 31q-2 2 -2 8t-8.5 20t-23.5 17q-12 4 -70 4q-19 0 -19 11q1 7 7 13l144 38q83 26 83 110
q0 29 -17 57t-73 59q-58 32 -236 32zM922 273q-18 -7 -34.5 -13t-30.5 -13q-15 -8 -33.5 -20.5t-41.5 -29.5q-45 -33 -45 -43l7 -26q7 -22 16 -22q12 1 54 42q45 35 67 48q29 17 50 17q11 0 20 -5.5t9 -16.5l-4 -22l-4 -22q0 -17 18 -20h12l-3 6q-2 6 -2 14l3 18l12 24
q17 26 17 48q0 39 -56 39zM625 88q6 3 17 3q12 0 12 -5q0 -9 -15 -18l-34 -20q-20 -12 -54 -21l48 41z" />
    <glyph glyph-name="d" unicode="d" horiz-adv-x="893" 
d="M124 754q-16 -3 -23 -8l-18 -22q-13 -16 -13 -23l30 -41q12 -26 12 -78l18 -446q0 -26 -14 -34l-38 -18q-26 -12 -32 -38t-25 -30q-18 -3 -18 -11q0 -6 8 -9l17 -4q43 0 70 15q27 17 38 15q67 -18 117 -18q88 0 98 46l2 16q0 25 -33 48q-32 23 -32 33q1 5 3 9.5t4 9.5
l15 4q11 0 28.5 -14t44.5 -56q14 -20 32.5 -40t41.5 -40q46 -39 130 -39q35 0 89 15q52 13 100 58t76.5 105.5t28.5 136.5q0 67 -30 137.5t-88 133.5t-102.5 90t-81.5 27l-32 -5q-8 -3 -22 -9t-21 -10q73 -38 138 -84q32 -23 60.5 -51.5t51.5 -63.5q47 -71 47 -159t-48 -146
t-127 -58q-54 0 -142 55q-86 55 -138 55q-41 0 -60 -16q-18 -17 -18 -39q2 -16 5.5 -28.5t13.5 -27.5q1 -2 1 -9l-5 -2l-20 4q-18 4 -46 70q-27 64 -27 169l3 74q3 23 6.5 44.5t9.5 46.5q6 27 13 51.5t13 43.5t10.5 31t4.5 15q0 9 -12 12q-16 7 -16 20q5 23 38 28l24 1l28 1
q7 0 17.5 -0.5t40.5 -4.5l55 -10q7 -1 16 -6q6 -2 9 -4l-5 -8l-13 -14q-4 -2 -7.5 -4t-8.5 -3q7 10 7 16l-7 9q-6 6 -13 6q-10 -1 -16 -7.5t-6 -15.5t9 -19.5t21 -10.5t58 29q46 30 63 36q18 6 24.5 7t19.5 1l36 1l25 2q10 4 11 13l2 12q-1 11 -9 14.5t-34 6.5
q-18 4 -61.5 6t-103.5 2q-12 0 -40.5 0.5t-74.5 1.5q-90 3 -139 3z" />
    <glyph glyph-name="e" unicode="e" horiz-adv-x="933" 
d="M379 762l-217 -4l-100 -5q-31 0 -32 -6q-1 -3 -1 -29q0 -32 28 -47q29 -17 29 -109l4 -149q18 10 30.5 15.5t20.5 7.5q19 8 38 8l11 243l278 7q39 0 59 -2t27 -5q17 -8 17 -20q-1 -8 -33 -37t-32 -49l3 -19q4 -12 13.5 -20t33.5 -8t72 9q18 0 18 -12l-7 -22q-4 -9 3 -9
l29 10q20 11 20 17l1 13q0 30 -50 30q-50 3 -50 12q3 9 30 24t61 26q36 15 51 30.5t15 32.5q-2 14 -10.5 24.5t-30.5 21.5q-54 19 -80 19q-10 1 -72 1.5t-177 0.5zM367 574l-13 3q-17 0 -31.5 -13t-14.5 -27q1 -6 5.5 -13l9 -14t8 -13.5t3.5 -10.5q0 -26 -83 -40
q-42 -7 -74 -14.5t-57 -17.5q-50 -18 -57 -85v-12q0 -57 56 -107l104 -78l65 -44l25 -18q-4 -1 -20 -1q-17 0 -29.5 3.5t-23.5 11.5q-23 16 -33 33l-17 24l-16 12l-73 54l-6 -117q1 -10 8.5 -14t16.5 -8.5t17.5 -12.5t12.5 -25q9 -22 29 -22l505 -8q97 0 140.5 20.5
t43.5 62.5q0 33 -31 49q-30 18 -30 25l-1 13q1 13 11 17.5t37 11.5q28 8 40 12t18 9q17 11 17 44q0 22 -10 33q-8 11 -41 22q-31 10 -31 26q0 15 -9 15q-10 -2 -17.5 -7.5t-7.5 -19.5q2 -14 10 -24t8 -19q-3 -14 -86 -31t-83 -64q0 -34 53 -57q54 -23 48 -45
q-3 -19 -23.5 -26t-69.5 -7l-67 3l-96 10q-35 6 -68 13t-69 18q-38 11 -70 29t-58 41q-51 45 -59 63q-6 16 -6 75v52q72 0 124 3t84 10q66 13 78 46t12 44q0 9 -6 30t-61 30q-57 10 -57 16q0 8 12 13l13 8l-1 4q-1 1 -1 2q-3 2 -7 4z" />
    <glyph glyph-name="f" unicode="f" horiz-adv-x="840" 
d="M555 759l-244 -1l-180 -6q-90 0 -94 -9l-3 -9l46 -106q24 -68 30 -131l6 -72q-1 -11 -13 -26q-13 -14 -23.5 -39t-10.5 -57q0 -47 15 -81q8 -16 16.5 -30t17.5 -27l83 -105l-17 -4q-5 0 -6.5 9.5t-9.5 17.5l-61 83l-50 -133q-7 -11 -7 -20q0 -8 21 -8l22 -4h30q13 0 28 2
t29 5l65 16q14 -8 31.5 -14.5t43.5 -6.5q30 0 45 14.5t15 36.5q0 20 -13.5 34t-34.5 14q-23 0 -41 -7l-47 -18l-27 21l-30 31l16 225q0 31 -10 31q-6 0 -19 -6q-34 -10 -45 -29.5t-11 -50.5v-23l1 -21q-13 13 -13 53q0 21 15 54q16 31 93 43l126 11q61 12 61 63q0 24 -12 37
t-27 18q-69 22 -69 48q0 15 27 33q-7 4 -14 4l-16 -4l-21 -13q-14 -11 -14 -26q0 -8 11 -28q12 -20 12 -26q0 -12 -11 -21t-42 -19l-30 -10q-7 69 -12 108.5t-8 50.5l-7 33l-13 42q118 12 154 12l96 3q42 0 78 -3.5t67 -10.5q60 -13 80 -36q20 -22 20 -33q-1 -8 -4.5 -16
t-8.5 -18l-23 -38q-10 -17 -10 -31q0 -22 12 -38.5t34 -16.5h6l19 4l26 6q10 2 20 2q11 0 19 -9q10 -10 28 -13q22 0 22 20q0 10 -8 16q-14 14 -24 19t-26 5l-26 -3l-26 -4q-12 2 -14 4.5t-2 15.5q8 21 23 31.5t46 14.5l61 19q38 17 38 50q0 67 -77 84q-79 17 -200 17z
M303 61q13 6 27 6q21 0 23 -11q0 -9 -8.5 -15t-17.5 -6q-13 0 -25 5.5t-18 10.5q13 10 19 10z" />
    <glyph glyph-name="g" unicode="g" horiz-adv-x="807" 
d="M448 779l-55 3q-129 0 -206 -68q-74 -67 -103 -141q-27 -74 -27 -98q0 -21 47 -38l10 -2q14 2 24 38q11 38 34 86q28 55 97 90q68 35 150 35q60 0 116 -21q55 -20 85 -53.5t30 -71.5q0 -17 -8.5 -25.5t-19.5 -8.5q-14 1 -43 13q-36 14 -50 14q-23 1 -41 -17t-20 -48
q1 -16 7 -25.5t15 -9.5q7 1 7 10q-2 8 -2 15l-1 16q1 13 5.5 17.5t15.5 4.5q15 -2 47 -44q33 -42 80 -42t69 32.5t22 79.5q0 52 -32 108q-31 57 -98 99t-155 52zM33 477l-10 5h-5l5 -13l5 -53q1 -10 10.5 -16.5t9.5 -17.5q0 -51 6.5 -90t19.5 -73q14 -33 35.5 -64.5
t50.5 -60.5q-6 15 -14 36.5t-11 35.5q-2 15 -2 34v48q-8 42 -15 57q-3 19 -3 72q16 -20 17 -30l9 -37q0 -163 28 -218q29 -56 112 -79q84 -23 103 -24q10 -1 19 -2t17 -3h31q68 0 131 28q32 14 55.5 32.5t40 39.5t26.5 42t14 39q6 23 9.5 43t8.5 48q10 54 34 63q23 11 23 18
q0 21 -22.5 29.5t-60.5 8.5q-31 0 -62 -7l-76 -18q-42 -9 -65 -9q-25 0 -34 16t-19 16q-17 -2 -17 -21q0 -11 6 -21t21 -17.5t39.5 -12t60.5 -4.5q56 0 73 -13q19 -12 23 -57q0 -79 -29 -105t-57 -45l40 40q27 33 30 57q5 25 5 34l1 13q0 46 -20 55t-36.5 10.5t-36.5 1.5
q21 -24 29 -43t8 -39q0 -30 -17 -55.5t-41 -40.5q-23 -15 -43 -19.5t-51 -4.5q-46 0 -92 12q-22 7 -45 19.5t-48 29.5q-49 34 -64 75q-7 20 -12 37.5t-7 31.5l-12 75q-9 36 -55 58q-45 23 -56 36q-10 13 -18 17z" />
    <glyph glyph-name="h" unicode="h" horiz-adv-x="887" 
d="M304 756q-90 0 -103 -4q-14 -5 -38 -23q-12 -9 -19 -18l-6 -6l17 -25q6 -7 10.5 -16t8.5 -18q12 -33 18 -60t6 -56q3 -12 4 -28t1 -37v-13v-15v-18v-23v-28v-35v-43l31 60q8 13 15 23t14 18l6 60q1 7 3 24v43q0 87 31 131q31 46 102 88q3 3 3 9q0 2 -6 5zM701 556l-16 2
h-15q-112 0 -240 -65q-129 -65 -172 -132q-44 -68 -51 -130l-18 -141q-12 -13 -74 -13q-63 0 -63 -35q3 -16 8 -21.5t5 -12.5q-2 -8 -8 -8l-12 1l-16 3q-9 0 -9 -8q0 -16 11 -20.5t32 -4.5h13q18 0 24.5 5t6.5 14l-2 19q1 12 13 12l33 -7l55 -14q10 -2 17 -3t12 -2t14 -1.5
t23 -0.5q12 0 24 2t24 5q25 6 25 26q0 6 -6 20l-18 37q-13 27 -21 59q-3 10 -4.5 17.5t-2 14t-1 15t-0.5 22.5q0 84 40 139q41 56 121 91q81 36 159 36q30 -1 56 -7t45.5 -18t29.5 -31.5t9 -47.5q0 -40 -23 -100q-23 -61 -70 -135q-47 -77 -47 -106q0 -17 7 -30.5t17 -23
t21 -14.5t20 -5q21 0 49 19t70 54l18 6q10 -1 10 -10q-2 -8 -2 -17l-1 -14q2 -11 6 -17t16 -6l18 3q3 0 8 5q-2 5 -8 5q-14 0 -14 13q2 10 9 20.5t10 20.5q4 9 4 24q0 16 -9 24q-11 10 -21 12l-21 2q-29 0 -60 -34q-16 -17 -27.5 -27t-19.5 -14l-22 -14l-10 -3q-14 0 -14 20
q0 26 72 121q36 48 61 84t38 60q28 46 28 105q0 32 -12.5 59t-34 47t-51.5 33t-66 16z" />
    <glyph glyph-name="i" unicode="i" horiz-adv-x="327" 
d="M207 770h-10q-27 0 -43.5 -14t-16.5 -41q0 -21 12 -33.5t29 -12.5q13 0 23 5l15 15q6 7 6 17q-1 6 -12 26l6 2q10 -2 17 -12q9 -14 9 -28q0 -23 -24 -48q-24 -30 -70 -30t-51 -14l-3 -15q2 -7 11 -18.5t22 -40.5q7 -16 12 -32t7 -33q4 -15 4 -63v-12v-16v-19v-23
q0 -160 -11 -195q-11 -33 -55 -47q-42 -13 -53 -22q-8 -8 -8 -26q1 -7 3 -12l4 -10l20 -18q1 -1 2.5 -3t5.5 -6q1 0 3 -2q-1 -1 -2.5 -3.5t-3.5 -3.5l-5 -7q1 -4 27 -4q24 3 24 15q0 5 -14 22q-7 8 -9.5 13l-4.5 9q1 4 8 7q5 0 25 -9q10 -6 23 -10.5t25 -7.5q13 -3 20.5 -4
t21.5 -1q31 0 54 9q20 12 20 27q-2 13 -30 56t-28 140v18t-1 25q-1 15 -1 26v20v98q0 61 9 100t30 88q22 48 22 79q0 70 -64 79z" />
    <glyph glyph-name="j" unicode="j" horiz-adv-x="856" 
d="M549 682q21 -22 26 -34t8 -26l10 -32q5 -17 5 -60v-14v-16v-20l-4 -134l-4 -66q0 -14 3 -18q2 -2 9 -8t19 -14q25 -16 40 -16q26 0 26 116l10 226q0 24 5 43.5t8 27.5q6 17 13.5 32.5t15.5 29.5q0 8 -9 14q-8 6 -21 23q-12 18 -32 18l-187 6q-3 0 -10 -3q-2 0 -3 -1
l-1 -20q0 -19 31 -32q32 -12 42 -22zM302 551q-10 5 -18 5q-14 0 -19.5 -8.5t-5.5 -26.5q0 -10 9 -10l18 2q10 -1 10 -12l-6 -29q-8 -19 -13.5 -24t-13.5 -5l-13 2l-20 5q-11 3 -29 3q-71 0 -126 -60q-56 -59 -56 -171q0 -126 81 -193q82 -68 196 -68q92 0 182 40
q93 41 125 89l40 59l7 7t5 3l24 -13q13 -7 47 -7q35 0 40 33q4 33 10 33q19 -19 34 -19t20.5 11t5.5 35q-3 21 -12.5 29.5t-20.5 8.5q-15 -2 -27 -7q-12 -6 -26 -26q-13 -19 -32 -27l-28 -4q-35 0 -68 18l-66 43q-13 0 -64 -72q-50 -71 -72 -96q-22 -23 -57 -37
q-22 -9 -30.5 -11.5t-20.5 -4.5l-31 -3q-55 0 -96 35q-39 34 -39 86l4 31q4 16 6.5 21.5t6.5 13.5q5 10 12.5 18.5t14.5 15t12 11t5 7.5l-7 16q-8 16 -17 21q-10 8 -23 8q-11 -1 -30.5 -21.5t-32.5 -46.5l-3 19q0 21 12 35q11 17 37 23l17 2q50 0 65 -114q16 -114 61 -114
q36 0 42 53q7 53 13 59q10 4 13 -4q5 -9 14 -11q23 0 23 23q-1 11 -10.5 18.5t-23.5 7.5q-35 0 -45 -42q-11 -43 -22 -44q-10 -1 -15.5 10.5t-5.5 30.5l14 46q15 37 18 69l4 42l-2 17l-3 17q32 49 32 88q0 23 -9.5 39t-20.5 22zM538 187q14 8 19 8q1 0 6 -3l-11 -22
q-11 -18 -20 -25t-15 -7q-6 1 -6 7q0 8 8 22t19 20z" />
    <glyph glyph-name="k" unicode="k" horiz-adv-x="838" 
d="M547 769l-13 1q-15 0 -32.5 -14.5t-17.5 -37.5q0 -33 31 -49q13 -9 26 -12l28 -3l22 1h8t9 -1q-2 -5 -11 -14l-29 -28l-40 -43l-160 100q-21 13 -65 32q-13 6 -21 9.5t-11 5.5q-8 4 -15.5 6.5t-13.5 3.5q-12 4 -32 4q-38 0 -50 -20q-11 -20 -11 -25q0 -4 3 -8l32 -16
q27 -14 27 -274l-1 -100v-105l39 77l30 50q11 14 11 28l-3 31l-15 244q31 -7 77 -31l78 -44l44 -27q-70 -75 -115.5 -126t-66.5 -79q-20 -28 -38 -59.5t-32 -68.5q-29 -72 -39 -81q-11 -8 -71 -8h-43q-14 0 -30 -11t-16 -27q0 -17 18 -32q20 -11 20 -19q-1 -7 -8 -10l-7 -6
q4 -2 9 -4t17 -4q27 0 27 20q0 9 -6 20l-8 15q-12 7 -12 13q1 6 14 6l15 -7l22 -10q62 -32 134 -32q45 0 60.5 12.5t15.5 21.5q0 6 -26 32q-25 26 -25 58q0 50 40 115q20 33 44 64t50 60q29 32 50.5 53.5t34.5 32.5q18 16 33 28t34 25q31 24 114 75q42 26 67.5 43t36.5 27
q22 19 22 51q0 19 -13 31t-38 12q-23 0 -80 -19q-32 -12 -55.5 -15.5t-52.5 -3.5q-31 0 -34 9q0 12 2 18q7 6 15 6q7 0 10 -3l12 -14v14q0 13 -5.5 22.5t-19.5 13.5zM631 461l-42 44l-55 -42l58 -53q47 -49 75 -115q28 -63 28 -120q0 -45 -21 -76q-23 -34 -61 -34h-13
q-39 0 -83 32q-44 33 -58 35q-15 5 -24 5q-25 0 -39 -17t-14 -40q2 -13 10 -28.5t8 -22.5q-6 -11 -13 -11q-9 -2 -6 -9q6 -14 25 -14q15 1 24 7q14 8 14 22q0 19 -4 26l-6 18q1 7 11 12q7 3 27 -12l58 -46q39 -28 73.5 -39.5t66.5 -11.5q29 0 53 10q14 5 29.5 12.5
t32.5 18.5q35 23 35 99q0 73 -51 168q-25 48 -59 92.5t-79 89.5z" />
    <glyph glyph-name="l" unicode="l" 
d="M179 638l18 -244l-22 -15q-16 -10 -22 -26q-14 -26 -14 -53q0 -38 18 -66q21 -27 34.5 -35t13.5 -15l-5 -43q-4 -34 -17.5 -48.5t-32.5 -14.5l-18 3q-4 1 -19 11q-10 11 -18 14.5t-17 3.5q-12 1 -19 -8.5t-12.5 -22t-9.5 -24.5t-8 -16l-11 -9q0 -2 9 -6l12 -3q8 1 23 16
q17 17 25 17q5 -1 9.5 -2t6.5 -2l37 -24q34 -17 59 -17q17 0 33.5 8t26.5 24l14 12l9 -6q23 -14 43 -23.5t37 -16.5q36 -12 95 -12l27 1l100 10q75 10 140 65q64 55 64 132l30 11q12 4 16 4h13l17 -2q13 -3 19 -7l12 -10v-9q0 -7 9 -17.5t21 -10.5q13 2 21.5 11t8.5 20
q0 19 -20 37q-11 10 -24.5 15t-31.5 5h-13q-15 0 -39 -6l-44 -15q-11 16 -19 26t-14 15q-10 13 -49 19q-19 4 -26.5 5t-20.5 1l-36 1q-26 0 -26 10q0 14 42 25q21 7 33.5 13t19 12t8 13t1.5 16q0 20 -13 33t-37 13q-19 0 -30.5 -7t-14.5 -17q15 5 22 5q15 0 15 -17t-64 -39
q-63 -23 -75 -45q-11 -24 -11 -38q0 -26 21 -44q22 -18 56 -18q13 0 19 1t19 4l47 14q15 4 22 5.5t21 1.5q43 0 43 -55q0 -20 -6.5 -35t-30.5 -37q-24 -21 -53 -27t-76 -6l141 74l13 10q3 6 3 17q-2 11 -4 14q-1 0 -1 1l-49 -23q-14 -8 -25 -14t-18 -10q-7 -3 -18 -7.5
t-25 -10.5q-41 -18 -102 -18q-67 0 -169 34q16 -27 35.5 -43t43.5 -25t52.5 -11.5t62.5 -2.5q-16 -7 -27.5 -9t-27.5 -2q-36 0 -69.5 16.5t-68.5 48.5q-33 35 -42 73q-9 40 -15 78t-6 84q-24 0 -38.5 -5.5t-14.5 -14.5l3 -90q-8 3 -17.5 18.5t-9.5 33.5q0 35 18 53t44 18
q12 0 23 -5t16 -8q-11 -8 -11 -18q0 -2 0.5 -4l1.5 -6q8 -17 27 -17q14 0 23.5 12t9.5 27l-4 20q-4 10 -15 19q-20 13 -27 15q-8 4 -33 7q0 24 3 54.5t8 60.5l20 109l18 71l19 53h-144q-19 0 -31 -15.5t-13 -31.5l-3 -11q1 -7 25 -18q24 -9 27 -40z" />
    <glyph glyph-name="m" unicode="m" 
d="M396 756q-110 0 -155 -13q-23 -6 -39 -18t-26.5 -26.5t-15.5 -30.5t-5 -30q0 -38 27 -68q28 -28 62 -28q16 1 28 8q15 7 15 23q-5 31 -25 31q-21 0 -21 -20l4 -22q-19 13 -19 36q0 13 5.5 26t14.5 22.5t21 15.5t25 6q65 0 82 -90q17 -91 17 -337q0 -34 -2.5 -66.5
t-6.5 -54.5q-6 -26 -14 -45t-14.5 -32.5t-11.5 -21.5t-5 -11q0 -17 30 -17h11h31l34 -1q32 0 43 3q11 5 11 12l-7 27q-4 11 -7.5 24t-5.5 27l-19 258q0 234 10 280q10 45 61 45q43 0 66 -19q12 -9 23.5 -23t21 -31t17 -35t11.5 -36q2 -10 3 -17.5t2 -14.5t1.5 -19t0.5 -29
q0 -65 -19 -145q-11 -45 -22.5 -85t-24.5 -76l-33 -99q-5 -20 -6 -29t-1 -26q0 -42 15.5 -63t42.5 -21l23 5q14 5 32 18t75 73q58 61 81 58q15 -3 15 -29q0 -14 4 -22t10 -12t12.5 -5.5t11.5 -1.5q18 0 26 11q11 11 8 26q0 20 -15 20q-19 0 -20 -7t-2.5 -10t-3.5 -6
q-6 1 -9 10l11 30q7 14 7 22q0 7 -6.5 19.5t-29.5 12.5q-20 0 -46 -13q-13 -6 -30.5 -18t-39.5 -31q-44 -36 -64 -36q-13 1 -19 16.5t-6 28.5q0 32 45 127q23 48 39.5 86.5t27.5 67.5q23 61 23 140q0 42 -8.5 82.5t-35.5 97.5q-25 57 -85 77q-57 19 -179 19h-83zM185 749
q-24 0 -33 -3t-21 -14q-15 -17 -15 -47l24 -166q2 -11 4 -27t6 -36q1 -8 2.5 -28t4.5 -53q4 -33 5.5 -64.5t1.5 -60.5l-5 -86q-6 -51 -18.5 -69.5t-32.5 -18.5h-15q-16 0 -26.5 -7.5t-19.5 -29.5l-12 -23q-4 1 -6.5 11.5t-13.5 10.5q-24 0 -24 -25q0 -17 12.5 -25t20.5 -8
q14 0 25 11q12 11 22 29q10 19 23 19q4 -2 16 -8.5t32 -19.5q40 -25 64 -25l12 1l22 6q18 7 27 25.5t9 56.5q0 13 -2.5 39.5t-7.5 67.5l-18 136l-11 79v41q0 57 13 89v6q-47 0 -77 30q-28 31 -28 74q0 26 11 53q15 27 36 45l16 7l9 5q-6 1 -13 1.5t-19 0.5z" />
    <glyph glyph-name="n" unicode="n" horiz-adv-x="886" 
d="M481 761q-110 0 -154 -11q-21 -6 -36.5 -16t-27 -22t-19.5 -24.5t-12 -23.5q-4 -14 -5.5 -20.5t-1.5 -23.5q0 -37 19 -60q19 -21 47 -21q21 3 35.5 20t14.5 36q-1 12 -6.5 20t-17.5 8q-11 -2 -14 -8l-3 -11q0 -11 11 -22q-21 0 -21 19q0 36 48 62q50 26 109 26l45 -4
q23 -4 53 -18t50 -33t34.5 -56t14.5 -88q0 -69 -29 -165l-57 -182q-28 -84 -28 -132q0 -19 4.5 -31t12 -19t17.5 -9.5t20 -2.5q13 0 30.5 6.5t36.5 18.5t38 28.5t36 37.5q35 42 52.5 59t33.5 17q8 0 11 -6l4 -9l-7 -20l-6 -25q0 -15 12.5 -23.5t21.5 -8.5t23 8l14 15
q2 4 2 15q0 19 -16 22q-13 0 -16 -5.5t-4 -21.5q-8 8 -8 18q2 15 11.5 32.5t9.5 33.5q-4 24 -28 24q-22 0 -38 -15l-92 -91q-25 -22 -65 -22q-34 4 -34 35q0 21 9 50q10 28 66 153q60 129 75 186t15 113q0 77 -28 120q-28 45 -61 55q-33 12 -130 12h-71zM290 753
q-63 0 -76 -6q-12 -4 -29 -24q-4 -5 -7.5 -9t-5.5 -8t-3 -7l20 -49q5 -17 10 -53.5t10 -92.5q5 -55 8 -110t3 -112q0 -110 -14.5 -156t-35.5 -46q-7 0 -18.5 8.5t-20.5 8.5l-14 -4q-7 -3 -15 -11l-13 -17l-12 -17q-5 -8 -16 -8q16 10 16 25q-2 12 -7 16q-7 7 -18 5
q-12 -4 -20 -15t-8 -26q0 -18 11 -32q16 -14 32 -14t29 10l30 25q16 16 24 16q5 0 34 -23q28 -22 62 -22q42 0 59.5 22.5t17.5 71.5q0 20 -3 46.5t-8 61.5l-22 139q-12 70 -12 88l-1 28l4 41q6 20 10 24q-2 2 -5.5 2.5t-14.5 1.5q-21 6 -38 26.5t-17 60.5q0 25 7 43.5
t20 37.5q29 39 47 54z" />
    <glyph glyph-name="o" unicode="o" horiz-adv-x="753" 
d="M315 743q-24 -15 -42 -27.5t-33 -24.5t-28 -24.5t-26 -27.5q30 -3 44 -11q15 -7 39 -26l46 40q14 9 26.5 15.5t28.5 12.5q60 -10 156 -97q94 -85 109 -149l21 -80q4 -12 4 -44q0 -43 -17 -84.5t-50 -66.5q-32 -24 -71.5 -36.5t-88.5 -12.5q-58 0 -120 23.5t-116 69.5
q-54 47 -92 119q-37 73 -37 131q0 42 10 53l19 21l17 12q-11 -10 -18.5 -22.5t-10.5 -25.5l-6 -26l-1 -17q0 -20 11 -48l21 -49l28 89q8 24 15 41t15 30q16 28 31 28q18 -3 20 -20t2 -46q-2 -23 2 -41.5t11.5 -32t18 -20.5t21.5 -6q15 1 29 12q14 16 23 35l18 38
q11 14 19 14q6 0 11 -6l9 -5q2 3 2.5 5.5t0.5 10.5q-1 15 -11 26q-8 5 -11.5 6t-6.5 2l-18 -8q-13 -7 -28 -47q-2 -5 -4.5 -11.5t-6.5 -11.5t-7.5 -8t-6.5 -1q-7 4 -7 26q1 7 1.5 12t0.5 9v12l1 37l-3 35q-2 11 -8 25.5t-17.5 27.5t-29 21.5t-40.5 7.5q-35 0 -73 -22
q-40 -21 -56 -48q-9 -14 -15 -24.5t-10 -22t-6 -25.5t-2 -33q0 -11 1.5 -23t3.5 -26l16 -57l-3 -46l-1 -39q0 -21 2 -39.5t5 -38.5q7 -39 33 -86q26 -45 55 -63q15 -8 35.5 -17.5t46.5 -20.5q48 -16 139 -16q75 0 145.5 13.5t127.5 46.5q60 36 87 100t27 140q0 24 -2 42.5
t-6 36.5q-6 40 -25.5 93.5t-61.5 114.5l-44 55q-56 62 -108 99.5t-108 58.5l-39 -19zM116 167l-10 27l-3 13q6 -2 27 -39q20 -25 38.5 -44t37.5 -32q37 -26 114 -51q-67 0 -123 29q-53 31 -81 97z" />
    <glyph glyph-name="p" unicode="p" horiz-adv-x="940" 
d="M552 755q-25 3 -44.5 4t-31.5 1l-57 1h-63l-106 -4q-34 -4 -34 -29q1 -10 5.5 -26.5t8.5 -29.5q7 -21 13.5 -62t11.5 -102q8 -66 11 -117t3 -102q0 -64 -2 -105.5t-6 -61.5q-8 -39 -23 -42q-10 2 -45 32q-34 34 -58 34q-13 -2 -27.5 -14.5t-14.5 -30.5q0 -39 -8.5 -56
t-18.5 -17q-13 0 -21 14q-3 -12 3 -24.5t22 -12.5l20 4q16 4 36 36t34 32q13 -2 20 -7q7 -4 36 -38q29 -32 61 -32q52 0 71 46q11 25 15 51.5t4 65.5l-3 54l-3 55q9 -6 18 -9t26 -3q9 0 25.5 3.5t32.5 6.5q12 3 19.5 5t12 3.5t7.5 2t7 0.5q17 0 20 -11l3 -16q0 -14 -20 -14
q12 -12 25 -12q16 0 28.5 12t12.5 32l-4 18q-3 8 -14.5 20.5t-31.5 12.5q-12 0 -43 -9q-16 -4 -27.5 -6t-19.5 -2l-27 4q-13 3 -41 20q-27 16 -27 51q0 16 12 28t24 12q21 0 53 -48t46 -43l8 4l-4 9l-50 70l246 -89q20 -10 36 -13l39 -2q40 0 76 19t57 52q22 34 32 61t10 63
q0 33 -14 70q-13 35 -53 78q-39 44 -106 66q-55 22 -103.5 29.5t-99.5 7.5zM361 691q157 0 243.5 -22.5t116.5 -52.5q31 -29 41.5 -53t10.5 -47q0 -16 -6 -33t-18.5 -30.5t-33 -21.5t-48.5 -6q-18 0 -49.5 3t-77.5 8l-139 18q-19 21 -31 39q-14 22 -19 54q0 6 1 12.5t2 9.5
l7 -7q9 -6 13 -6q8 0 15.5 12.5t7.5 21.5q0 17 -10 24q-11 11 -26 11l-20 -3q-12 -3 -20 -14t-8 -27q0 -24 15 -57.5t45 -75.5q-20 0 -34 -13l-7 46q-1 9 -5.5 19.5t-9.5 23t-9 27t-4 29.5q0 14 6 31q4 9 9.5 14t10.5 9.5t8 10.5t3 16q-5 19 -23 29l3 2l17 -1h23z" />
    <glyph glyph-name="q" unicode="q" horiz-adv-x="761" 
d="M217 742q-40 -24 -72 -49t-56 -53t-40 -61t-24 -74q-9 -40 -12.5 -73t-3.5 -57q0 -121 59 -213q61 -96 133 -130q57 -31 87 -35q16 -2 25 -3.5t13 -1.5q4 -1 9 -1h11q-23 29 -38.5 48.5t-18.5 23.5l-65 41q-60 47 -83 107q-12 34 -17 62t-5 60l2 31l14 69q15 55 84 113
q71 59 171 59q82 0 172 -37q5 -8 10 -16.5t10 -18.5q4 -9 10 -25.5t11.5 -39t9 -50.5t3.5 -59q0 -99 -47 -178q-48 -78 -101 -100q-55 -23 -71 -23q-17 0 -27 12l-29 40q-21 29 -35.5 70t-14.5 77q0 32 10 59q5 14 11 23.5t11 14.5l22 21q8 5 26 5q16 -2 22 -7.5t6 -14.5
t-9 -15l-9 -5l-1 13l-2 8q-3 3 -7 5q-11 2 -19 -6t-8 -21q1 -13 6 -25q15 -21 43 -21q16 0 35 10q17 10 26 27t9 32q0 13 -6.5 25.5t-18 22t-26 15t-30.5 5.5q-24 0 -59 -16q-36 -15 -59.5 -60t-23.5 -103q0 -50 17 -103q22 -55 60 -103q39 -48 66 -70q26 -23 77 -49l-51 -9
l-56 -3q-60 0 -107 16q-47 15 -59 41q-11 27 -11 36q0 11 3 17l7 12q-4 3 -17 3q-27 0 -51 -21q-22 -21 -27 -41l-6 -27v-23q0 -20 2 -32.5t5 -25.5q9 -26 30 -35l8 -1q8 2 8 19q2 10 5.5 17.5t7.5 12.5q20 11 30 11q7 0 54 -14q46 -15 94 -24t100 -9q74 0 139 17
q63 16 78 41q15 24 15 31q0 16 -16.5 26t-39.5 10l-91 2q-32 1 -69 24q45 18 78.5 36.5t59 38t43.5 39.5t33 40q25 38 34 72q13 34 21 99q23 27 30 41q5 9 6 15t1 18l-1 20q0 22 -3 33q-4 13 -27 61q-22 50 -111 100q-44 25 -79 40t-64 23.5t-52 11t-42 2.5q-26 0 -43.5 -3
t-35.5 -7q-19 -5 -35.5 -10.5t-30.5 -12.5q19 27 68 49q28 12 50.5 17t48.5 5l32 -3l29 -8q14 -5 33 -20q10 -8 17 -15t11 -12q17 -5 32.5 -11.5t29.5 -13.5l65 -35q-16 35 -37.5 63t-57.5 53q-36 27 -85.5 42t-101.5 15q-42 0 -78 -9.5t-66 -26.5z" />
    <glyph glyph-name="r" unicode="r" horiz-adv-x="814" 
d="M477 765l-285 -8q-6 -4 -17 -13l-21 -18l20 -40q8 -20 14.5 -54.5t11.5 -82.5t7.5 -121.5t2.5 -174.5q0 -54 -2 -88.5t-5 -51.5q-7 -34 -27 -34q-13 2 -20 25q-7 24 -25.5 32t-37.5 8q-28 0 -42.5 -14.5t-14.5 -28.5q1 -14 5 -23l20 -28q-13 7 -22 7q-22 0 -22 -26
q0 -21 13.5 -30.5t26.5 -9.5q16 0 27.5 11t11.5 28q0 9 -11 34q-11 27 -11 42q0 16 17 19q22 0 22 -25l-4 -39q0 -26 13 -42.5t34 -16.5l155 3l-7 295l205 134q7 5 9 7.5t4 5.5q0 5 -12 13l-18 14q-9 7 -24 14l-55 -38l-119 -75l-1 247l9 76q43 6 88 6l103 1q57 0 80 -20
t23 -49q-1 -8 -2 -15.5t-3 -14.5q-3 -12 -19 -37q-15 -25 -38 -25q-9 1 -32 12q-6 3 -16.5 9t-31.5 14q-29 11 -49 14q-24 -14 -50 -27t-54 -26q109 -11 171 -39q62 -27 123 -110q60 -82 83.5 -144t23.5 -110q0 -57 -23 -69q-24 -11 -35 -11q-22 0 -52 41q-29 42 -60 42
q-16 0 -25 -4.5t-13 -12t-4.5 -18t-0.5 -22.5q-33 -4 -30 -29q0 -18 8.5 -23t18.5 -5q11 0 22 7t14 16l3 13q0 9 -6 26l-6 21q0 9 12 12q25 4 42 -66q18 -68 54 -82q37 -14 47 -14l10 1l15 1q42 7 74 39t32 116q0 54 -18 112t-58 121q-23 35 -38.5 56.5t-23.5 31.5l-55 58
q119 95 119 175v12q-13 70 -73 76q-30 4 -73.5 5.5t-101.5 1.5z" />
    <glyph glyph-name="s" unicode="s" horiz-adv-x="734" 
d="M424 769q-79 0 -140 -11q-49 -5 -92.5 -18t-76 -32t-51.5 -42t-18 -49q0 -34 45 -68q43 -33 171 -91q67 -31 110.5 -52.5t75.5 -40.5q62 -38 81 -80q21 -44 21 -70q0 -38 -25 -66q-24 -27 -47 -27q-16 0 -23 9l6 -2q6 -2 10 -2q13 0 16 14l2 11q0 13 -9 18t-20 5
q-16 0 -24 -5q-7 -2 -16 -13.5t-9 -23.5q-3 -18 23.5 -34.5t77.5 -17.5q42 0 80 15t62 40q24 26 33 46.5t9 46.5q0 23 -10 43q-25 52 -144 112l-231 114q-110 61 -102 108q6 40 64 56q57 16 138 16l35 -1l44 -5q36 -5 46.5 -11t10.5 -21q-1 -16 -55 -33q-52 -16 -52 -59
q0 -21 17.5 -39.5t39.5 -18.5q19 0 34 15q9 9 13 12q1 1 5 3q4 -1 7 -15q6 -15 17 -15q12 2 18 13.5t6 27.5q0 24 -13 36t-20 12q-14 0 -26 -32q-14 -32 -21 -32q-6 1 -13 8t-7 24l1 14q3 10 13 25q10 16 79 16t80 23q10 20 10 32q0 45 -69 78q-68 34 -187 34zM226 310
q-4 16 -11 16q-12 0 -15 -18q-4 -25 20 -40q25 -15 25 -21q0 -14 -4 -15q-2 -1 -30.5 -5l-85.5 -12q-111 -14 -111 -103q0 -58 77 -93q76 -33 197 -33q24 0 65 3.5t101 10.5q120 14 190 69q71 57 71 131l-5 28q-5 -20 -11 -35t-11 -25q-10 -19 -36.5 -43t-58.5 -39
q-16 -8 -34 -11t-45 -3q-17 0 -45 5l-29 6q-13 -2 -31 -13q-10 -6 -27.5 -11.5t-40 -9t-48 -6t-51.5 -2.5q-57 0 -102 17q-43 19 -43 51q1 15 18 38q11 14 45 24t88 10q114 10 114 69q0 28 -12.5 37.5t-33.5 9.5l-26 -3l-32 -2q-28 0 -32 18z" />
    <glyph glyph-name="t" unicode="t" horiz-adv-x="786" 
d="M285 758q-93 -7 -167 -46q-72 -38 -86 -61t-14 -40q0 -34 33 -56q17 -11 37 -22t44 -22q48 -23 48 -38l-5 -16v-7q3 1 7 3q5 2 9 4.5t8 4.5q23 14 30 22q8 14 8 24q-1 10 -14 34q-12 22 -12 35q0 14 11.5 28.5t51.5 37.5q31 16 58.5 22.5t56 8t59 0.5t67.5 1
q102 0 115 -8q7 -5 9 -7.5t4 -5.5q0 -5 -12 -5l-127 6l-93 8q-33 0 -65 -8.5t-61 -26.5l-17 -16q4 -2 5 -2q13 -3 30 -6q36 -8 54 -69q19 -60 19 -269q0 -45 -1 -67t-3 -43q-4 -32 -21 -61q-16 -28 -27.5 -40t-18.5 -17q0 -1 1 -2t7 -3l48 -23q39 -19 138 -19q39 0 71 6.5
t55.5 19t36.5 31.5t13 45q0 51 -41 51q-14 0 -30 -6q-21 -8 -34 -8q-24 0 -24 20q0 10 8 24q7 7 9 8.5t5 2.5q3 -4 3 -15q3 -13 20 -13q14 3 19 17q4 15 -8 23.5t-30 8.5q-15 0 -28.5 -5.5t-24 -14.5t-17 -20t-6.5 -23q1 -14 13 -29q14 -12 34 -18l28 -9q8 -5 8 -11
q0 -8 -9 -17l-16 -9q-3 -1 -23 -1q-68 0 -85 92q-8 47 -12.5 103.5t-4.5 123.5q0 178 31 203t238 25q12 0 22 2t20 6q21 9 21 18q0 25 -31 41q-13 7 -39 18.5t-63 26.5t-71 24.5t-70 14.5t-86 8t-116 3z" />
    <glyph glyph-name="u" unicode="u" horiz-adv-x="840" 
d="M62 674q-4 -9 -6 -14.5t-3.5 -9.5t-2 -8t-1.5 -11l-15 -88q-5 -37 -8 -73t-3 -71q0 -94 20 -145q10 -25 27.5 -56.5t42.5 -71.5q50 -78 124 -113q72 -34 132 -34q63 0 118 26l87 67l38 -20q22 -13 40 -33q21 -21 34 -21q12 2 15 17l9 55q7 32 7 128q0 44 -2.5 91t-7.5 98
q-5 52 -9.5 93t-9.5 72l-15 83q0 7 3 15l30 -9q12 -4 32 -4l38 5q27 6 34 16q6 9 19 55l12 18q7 6 20 6l13 2l-7 18q-9 14 -24 14q-21 0 -33 -30q-12 -29 -25 -41.5t-35 -12.5q-19 0 -39 5l-91 33q-56 14 -66 14q-9 0 -9 -6l9 -21q5 -9 11 -21t12 -28q7 -15 13.5 -37.5
t11.5 -52.5q11 -61 11 -116q0 -61 -10.5 -114.5t-30.5 -104.5q-41 -102 -80 -131q-21 -17 -36 -26t-26 -12q-24 -8 -52 -8q-65 0 -127 47q-60 47 -65 83q45 -48 86 -67q39 -19 132 -19h35q31 0 47 10q17 11 40 50q-150 0 -178 3q-32 4 -88 33q-57 33 -103 127
q-24 49 -34.5 94.5t-10.5 93.5q0 70 26 110q14 20 31 26t41 6l20 -2l32 -1q42 0 53 35l13 31l12 22q-1 5 -6 8t-11 3t-36 -18q-29 -17 -43 -14q-4 2 -9 4l-10 4q-8 4 -14 6.5t-10 4.5q-26 15 -66 15q-12 0 -22 -3.5t-18.5 -12.5t-16 -25t-16.5 -41zM647 203l9 22.5t7 19.5
l8 40l6 -131l-4 -44l-53 32z" />
    <glyph glyph-name="v" unicode="v" horiz-adv-x="773" 
d="M36 690l2 -55l19 -91q16 -72 71 -151q54 -78 154 -193q101 -115 101 -146q-1 -8 -3 -15t-4 -15q-8 -17 -28 -17q-13 1 -24 7q-12 9 -32 51q-10 21 -25.5 30t-37.5 9q-38 0 -56 -45q-17 -44 -28 -38q11 -23 27 -23q17 2 32.5 15t22.5 24q10 12 23 11l59 -63q36 -33 59 -34
l42 -4q40 0 62.5 18t22.5 47q0 42 -95 146q-50 53 -81.5 89t-54.5 63q-41 51 -66 115q-17 42 -24 78q-10 46 -10 100q0 28 9 47.5t20 19.5q11 -1 33 -17q21 -15 53 -15q16 0 28.5 6t21 13.5t13 15t4.5 11.5l1 17q0 21 -12.5 36t-30.5 13q-28 -6 -28 -24q2 -17 12.5 -25
t13.5 -11q-1 -7 -19 -18l-21 -2q-26 0 -63 35q-36 35 -61.5 48.5t-44.5 13.5q-24 0 -40.5 -20.5t-16.5 -56.5zM652 711l-45 -96q-75 -151 -117 -248.5t-56 -139.5q-9 -27 -13.5 -42t-7.5 -27l38 -43l48 -60v64q0 76 16 140q16 66 78 179q61 112 132 222q35 55 56 84.5
t27 34.5q12 10 25 33t13 47q0 43 -42 43q-19 -2 -31.5 -6t-25.5 -4q-16 0 -20 9t-1 18q3 -13 7 -16t14 -1q1 0 8 4q1 0 3.5 2t4.5 11q3 15 -5 23.5t-23 8.5t-27 -12.5t-12 -32.5q0 -30 15 -49q17 -16 19 -27l3 -15q0 -24 -26 -24q-15 1 -23 8l-12 9l-2 -3l3 -16l4 -15
q0 -6 -6 -21z" />
    <glyph glyph-name="w" unicode="w" horiz-adv-x="824" 
d="M684 760l-14 6l-16 3q-19 0 -39 -17.5t-34 -48.5q-13 -30 -27.5 -44t-21.5 -17h-12q2 2 9 6t7 21q0 25 -25 25q-26 -5 -31 -22l-3 -19q0 -19 12.5 -29.5t23.5 -13.5l19 -3q27 0 56 24l33 38q16 19 34 19q21 0 36.5 -27t15.5 -67q0 -42 -1.5 -71.5t-3.5 -46.5l-27 -118
q-12 -45 -25.5 -86.5t-29.5 -79.5q-34 -81 -99 -187q48 0 71 3q26 5 43 13q19 9 60 42q41 34 50 34q12 0 18.5 -7t6.5 -25q-3 7 -11 10q-7 5 -17 5q-14 0 -25 -11q-7 -10 -7 -21q0 -14 10 -23.5t24 -9.5l20 4q17 6 27 19q12 16 12 37q-3 33 -22.5 47.5t-41.5 12.5
q-15 0 -42 -7t-54 -21l74 184q6 16 14 43t19 69q10 37 16.5 64.5t9.5 46.5q6 21 9.5 44t6.5 50l10 70l2 16q0 19 -11.5 25t-45.5 6q-27 0 -37 13q-6 8 -13 13.5t-13 8.5zM150 753q-17 9 -36 9q-39 0 -67.5 -34.5t-28.5 -103.5q0 -23 3.5 -49t9.5 -53.5t14.5 -55t18.5 -52.5
q21 -51 64 -121q45 -74 90 -131q46 -58 46 -72q0 -10 -12 -41q-14 -32 -42 -32q-31 5 -31 53q0 11 2 23.5t5 29.5l7 35q0 14 -6.5 25t-16.5 21l-4 4q-7 0 -13 -32q-20 -62 -20 -106q0 -49 20.5 -74.5t49.5 -25.5l27 3q19 3 41 29.5t35 80.5l12 44q-74 106 -74 116
q1 10 20 49q20 38 77 38q59 0 105 -58q48 -58 65 -99q19 -42 33 -117q52 105 52 122l-3 12l-19 44q-9 18 -20 35.5t-26 36t-34.5 39.5t-44.5 46q-51 52 -58 133q-8 85 -13 94q-6 11 -19 11q-11 -2 -17 -10.5t-3 -22.5l11 -47q1 -4 1.5 -9.5t0.5 -13.5q0 -26 -13 -42
l-102 -132l-32 -47q-20 40 -34 71.5t-22 54.5q-9 24 -14 43.5t-10 46.5q-2 14 -3 22.5t-2 12.5v20q0 28 11 46t36 18q22 0 42 -9l30 -11l24 -3q15 1 23 8q9 9 9 27q0 9 -3.5 18t-7 16.5t-7 14t-3.5 9.5q0 7 6 7l13 -2q13 0 13 15q4 27 -25 27q-27 0 -30 -33q-3 -32 -13 -33
q-8 0 -37 26q-29 25 -51 36z" />
    <glyph glyph-name="x" unicode="x" horiz-adv-x="766" 
d="M215 783q-22 0 -29.5 -9t-7.5 -25l4 -23q-54 15 -83 15q-59 0 -59 -59q0 -35 25 -64q25 -30 118 -89l66 -44l-81 -95q-23 -31 -42 -61t-33 -61q-28 -60 -38 -100.5t-10 -72.5q0 -65 33 -90q34 -25 72 -25q37 0 63 50q30 52 57 78l-26 -2q-5 -2 -14 -15l-18 -24
q-11 -11 -22 -11q-22 3 -31 23t-9 42q0 45 31 109.5t104 148.5l47 49q58 -41 91.5 -65t43.5 -32q14 -13 39 -40.5t61 -72.5l15 -28l11 -27q6 -13 7 -21.5t1 -25.5q0 -22 -7 -41.5t-18.5 -34t-27.5 -23t-34 -8.5l-33 2q-29 5 -29 47q0 44 -19 44q-14 -1 -29 -8q-2 -1 -5 -2
t-8 -3q-2 -1 -4 -1t-5 -1l-12 -1q-11 1 -13 4l-3 15l-2 12l-4 -2q-7 -5 -10 -10.5t-3 -19.5t6 -22.5t14 -8.5q5 1 12 4.5t15 8.5t13 7.5l9 4.5q8 -2 11 -16q6 -53 22 -69q13 -19 32 -27t37 -8q24 0 48.5 11t35.5 25q12 14 29 20t41 6l18 -2l26 -1q15 0 22 6.5t7 31.5
q0 55 -43 129q-43 76 -112 130q-35 28 -72 55.5t-79 55.5l-150 100q-37 25 -60.5 41.5t-34.5 25.5q-25 22 -25 51q0 27 34 27q39 7 60 10.5t31 6.5q19 6 22 32q-14 -18 -30 -18q-16 1 -28 10q-15 12 -15 26q0 17 11 17q10 1 10 8t-11 14.5t-26 5.5zM477 657l-153 -103
q-27 -20 -27 -24q0 -9 34 -25l27 -20q5 -3 9 -6t8 -5q2 0 3 -1l33 23q36 25 117 53l153 53q55 25 51 57q-4 25 -54 25l-32 -3q-17 0 -27 5q-10 7 -10 19q2 13 9 20l7 -12q4 -4 11 -4q10 0 12 9t2 14q0 9 -8 14q-12 6 -30 6q-19 0 -34.5 -5.5t-26.5 -14t-17 -18.5t-6 -19
q0 -23 36 -33q37 -13 40 -21q3 -12 -5.5 -16t-27.5 -4q-28 0 -50 8q-10 4 -20.5 11t-23.5 17z" />
    <glyph glyph-name="y" unicode="y" horiz-adv-x="860" 
d="M364 746l-13 4q-3 1 -15 1q-21 0 -34.5 -9t-13.5 -27q0 -23 -21 -23q-9 1 -25.5 5.5t-29.5 8.5q-42 13 -69 13l-33 -4q-19 -7 -35 -19q-22 -16 -34 -42.5t-12 -63.5q0 -85 70 -176q69 -90 190 -139l169 -62l-50 -50q-124 -127 -167 -185q-45 -62 -49 -92v-9q0 -21 10 -30
t29 -9q14 0 40 8l80 27q57 21 82 21q28 0 56 -28q15 -16 34.5 -30.5t40.5 -14.5q36 0 62 48q6 18 11 22l9 3l8 -3l10 -2q7 1 12 6l3 13q0 21 -18 21q-25 0 -37 -25q-17 -32 -27 -36q-8 -8 -21 -8q-24 0 -34 30l-22 59q-5 6 -14 6l-26 -4l-33 -5q-14 -2 -24 15q-10 16 -7 30
l14 40l17 23q34 55 103 96l126 68q35 19 60.5 39.5t42.5 42.5q19 26 29.5 61.5t10.5 78.5q0 35 -12 70q-6 18 -18 33.5t-28.5 26.5t-35.5 17.5t-39 6.5q-58 0 -78 -29q-19 -30 -20 -40l-3 -21q0 -21 11 -35q13 -15 28 -15q16 0 25.5 11t9.5 25q-1 12 -8 17l-10 4l-16 -6h-7
l5 16q6 13 20 21t27 8q16 -2 22.5 -6t8.5 -14q7 -16 -44 -81l-81 -100l-42 -51l-91 26l-67 26q-51 20 -115 89q-63 69 -63 122q0 25 14 42q16 22 28 26q13 7 30 7l35 -5q14 -2 24.5 -3t15.5 -1l20 2q27 8 31 12l7 11q-8 0 -17 2t-17 7t-14 13.5t-9 22.5q0 28 9 35t17 8l-2 2
zM827 740q-16 10 -35 10q-24 0 -86 -28t-79 -28t-18 4l5 15q-2 7 -8.5 12.5t-14.5 5.5q-15 0 -27 -15.5t-12 -40.5q3 -16 7.5 -25t12 -13.5t19.5 -5.5t30 -1h21q59 0 70 -15q10 -14 40 -27q30 -12 44 -32l6.5 -6.5t7.5 -8.5q1 -1 1.5 -2t2.5 -3q6 0 15 20q6 13 10 23.5
t9 29.5q9 31 9 62q0 23 -7 41t-23 28zM671 331l79 102l3 -25q0 -25 -11 -51.5t-36 -54.5q-14 -14 -28.5 -25.5t-30.5 -19.5l-59 -27z" />
    <glyph glyph-name="z" unicode="z" horiz-adv-x="777" 
d="M746 750q-8 20 -13 20q-4 0 -17 -5l-96 -45q-12 -5 -17 -9q-1 -1 -5 -3q1 -7 22 -18l28 -15l38 20l24 12q5 0 5 -17v-26v-12q0 -16 -6 -16q-7 0 -83 41q-77 43 -171 68q-98 26 -179 26q-54 -2 -100.5 -11.5t-81 -27t-54 -43t-19.5 -58.5q0 -29 20 -51.5t74 -30.5
q27 -3 43.5 -6.5t24.5 -8t10 -10t1 -14.5q-6 -16 -24 -16l-18 4q3 -17 31 -17l21 4l23 14q17 17 17 34q0 28 -26 42q-26 15 -31.5 23t-5.5 16l2 13l11 19q11 14 47 24q33 10 86 10q20 0 44 -3t42 -7q23 -5 43.5 -11.5t37.5 -14.5q-66 -49 -106.5 -80t-55.5 -45
q-17 -16 -41 -41t-53 -60q-64 -74 -91 -115l-50 -83q-12 16 -12 45v18q-10 -3 -19.5 -16t-9.5 -32q0 -39 19 -62q-20 -37 -30.5 -73.5t-10.5 -81.5v-11l1 -14q71 -13 114 -13q18 0 38 2t44 5l3 33q0 32 -17 71q48 -35 156 -73q105 -37 198 -37q33 0 63 6t53 20t36.5 36.5
t13.5 54.5q0 37 -14 54q-14 18 -54 44q-41 29 -41 36q1 5 5 10.5t8.5 11t8 10t3.5 7.5q0 10 -12 24q-11 15 -21 17t-13 2q-8 0 -10 -1q15 -14 15 -22q-2 -11 -24 -20q-30 -18 -30 -32q1 -8 11 -23l23 -29l22 -28q8 -11 8 -19q0 -13 -18 -26q-18 -12 -36.5 -16.5t-49.5 -4.5
q-16 0 -32 2t-36 6l-98 25q-31 8 -57.5 17t-49.5 18l-72 30q-4 -1 -8 -10l-10 -18l-15 -39q5 -6 10 -16t8.5 -21t6 -22t2.5 -18q-11 -4 -25 -4l-28 1q3 24 9 45l19 58q13 35 60 112q51 81 137.5 174t224.5 189l37 -22l38 -24q37 -24 67 -24q24 0 37 21t13 75v20l-1 40z" />
    <glyph glyph-name="Adieresis" unicode="&#xc4;" horiz-adv-x="886" 
d="M584 752q-139 0 -226 -3.5t-138 -11.5q-98 -15 -104 -47t47 -49q54 -15 54 -26q0 -8 -2 -11t-5 -4.5t-6.5 -2.5t-6.5 -4q1 -9 21 -9l24 3q16 3 16 20q-1 6 -4.5 14.5l-7 17t-6.5 16.5t-3 13q0 19 24 22l50 6q4 1 9 1.5t12 2.5h38q53 0 94 -26q-64 -15 -110 -43
q-45 -26 -100 -81q-105 -106 -105 -212q0 -36 12 -57.5t31.5 -34t45 -17t52.5 -5.5q46 0 101 16q56 16 79 30l89 61q35 25 55 41t27 23q14 14 20 14q2 -1 2.5 -3t0.5 -11q0 -10 6 -13l10 -4q13 0 22 12t9 26q-2 15 -10 30q-11 18 -36 18q-17 0 -39 -14q-14 -9 -30 -21.5
t-36 -28.5l52 140l19 -52q7 -12 15 -12l15 1l16 -3l20 -8q24 -23 24 -48q0 -31 -21 -40q-11 -5 -15 -9l-2 -2l-3 -3l15 -53q10 -24 18 -75q5 -10 8 -29l3 -41q0 -31 -10.5 -50t-38.5 -19l-34 4q-5 1 -13 1.5t-19 0.5q-29 0 -44 -11t-15 -40q0 -21 14 -30q15 -8 15 -13
q0 -2 -3 -6l-6 4q-4 -1 -4 -10q0 -26 26 -26q18 0 29.5 9.5t11.5 20.5q0 15 -11 24l-20 16q-5 4 -6 6.5t-2 4.5q0 5 6.5 8.5t11.5 3.5q11 0 22.5 -6t28.5 -20q8 -7 20 -14.5t19 -11.5q20 -10 45 -10q24 0 46 16q24 16 32.5 36.5t8.5 52.5q0 52 -22 115q-10 26 -19 53t-19 54
q-12 32 -20 53.5t-12 33.5q-24 62 -39.5 104.5t-22.5 65.5q-13 45 -13 63q0 21 12 36q14 14 36 14q15 0 41 -9q-26 45 -49 53q-23 9 -123 9zM432 220l22 31q-104 -32 -116 -45l-34 -37q-44 -40 -71 -56q-26 -17 -71 -17q-34 0 -50 10q-14 11 -14 25q0 10 6 20.5t6 19.5
q0 12 -11 18.5t-20 6.5t-19 -6l19 -14q7 -6 7 -11q-1 -7 -29 -33q-26 -26 -26 -57q0 -37 24.5 -55.5t64.5 -18.5q70 0 120 33q25 17 48 34.5t45 35.5q43 35 99 116zM377 890q-8 6 -18 6q-18 0 -30 -12q-15 -12 -17 -22l-2 -15q0 -23 19 -39.5t44 -18.5q28 0 50 11.5t25 34.5
q0 19 -29 30q-29 12 -42 25zM571 894q-7 7 -19 7q-7 0 -15.5 -4t-14.5 -8q-14 -14 -15 -21l-1 -16q0 -23 19 -39.5t44 -16.5l11 -1q24 0 43 13q18 13 18 35q0 19 -27 27q-28 11 -43 24zM518 632l-3 47q27 -29 27 -81q0 -19 -3.5 -40.5t-12.5 -47.5t-24.5 -58t-39.5 -71
q-48 -78 -66 -93q-18 -14 -49 -18q-52 0 -72.5 27t-20.5 69l4 39l11 34l11 24l22 32q57 60 115.5 91.5t100.5 45.5z" />
    <glyph glyph-name="Ecircumflex" unicode="&#xca;" horiz-adv-x="238" 
 />
    <glyph glyph-name="Edieresis" unicode="&#xcb;" horiz-adv-x="933" 
d="M379 762l-217 -4l-100 -5q-31 0 -32 -6q-1 -3 -1 -29q0 -32 28 -47q29 -17 29 -109l4 -149q18 10 30.5 15.5t20.5 7.5q19 8 38 8l11 243l278 7q39 0 59 -2t27 -5q17 -8 17 -20q-1 -8 -33 -37t-32 -49l3 -19q4 -12 13.5 -20t33.5 -8t72 9q18 0 18 -12l-7 -22q-4 -9 3 -9
l29 10q20 11 20 17l1 13q0 30 -50 30q-50 3 -50 12q3 9 30 24t61 26q36 15 51 30.5t15 32.5q-2 14 -10.5 24.5t-30.5 21.5q-54 19 -80 19q-10 1 -72 1.5t-177 0.5zM367 574l-13 3q-17 0 -31.5 -13t-14.5 -27q1 -6 5.5 -13l9 -14t8 -13.5t3.5 -10.5q0 -26 -83 -40
q-42 -7 -74 -14.5t-57 -17.5q-50 -18 -57 -85v-12q0 -57 56 -107l104 -78l65 -44l25 -18q-4 -1 -20 -1q-17 0 -29.5 3.5t-23.5 11.5q-23 16 -33 33l-17 24l-16 12l-73 54l-6 -117q1 -10 8.5 -14t16.5 -8.5t17.5 -12.5t12.5 -25q9 -22 29 -22l505 -8q97 0 140.5 20.5
t43.5 62.5q0 33 -31 49q-30 18 -30 25l-1 13q1 13 11 17.5t37 11.5q28 8 40 12t18 9q17 11 17 44q0 22 -10 33q-8 11 -41 22q-31 10 -31 26q0 15 -9 15q-10 -2 -17.5 -7.5t-7.5 -19.5q2 -14 10 -24t8 -19q-3 -14 -86 -31t-83 -64q0 -34 53 -57q54 -23 48 -45
q-3 -19 -23.5 -26t-69.5 -7l-67 3l-96 10q-35 6 -68 13t-69 18q-38 11 -70 29t-58 41q-51 45 -59 63q-6 16 -6 75v52q72 0 124 3t84 10q66 13 78 46t12 44q0 9 -6 30t-61 30q-57 10 -57 16q0 8 12 13l13 8l-1 4q-1 1 -1 2q-3 2 -7 4zM302 885q-8 6 -17 6t-18 -4.5t-12 -7.5
q-14 -14 -17 -28q-3 -25 15.5 -42.5t45.5 -19.5h9q26 0 43 11q19 13 19 33q0 19 -27 28q-28 11 -41 24zM576 885q-6 6 -17 6q-9 0 -18 -4.5t-11 -7.5q-15 -13 -18 -28q-2 -26 15 -42q20 -18 46 -20h9q26 0 43 11q18 13 18 33t-27 29q-26 9 -40 23z" />
    <glyph glyph-name="Idieresis" unicode="&#xcf;" horiz-adv-x="327" 
d="M207 770h-10q-27 0 -43.5 -14t-16.5 -41q0 -21 12 -33.5t29 -12.5q13 0 23 5l15 15q6 7 6 17q-1 6 -12 26l6 2q10 -2 17 -12q9 -14 9 -28q0 -23 -24 -48q-24 -30 -70 -30t-51 -14l-3 -15q2 -7 11 -18.5t22 -40.5q7 -16 12 -32t7 -33q4 -15 4 -63v-12v-16v-19v-23
q0 -160 -11 -195q-11 -33 -55 -47q-42 -13 -53 -22q-8 -8 -8 -26q1 -7 3 -12l4 -10l20 -18q1 -1 2.5 -3t5.5 -6q1 0 3 -2q-1 -1 -2.5 -3.5t-3.5 -3.5l-5 -7q1 -4 27 -4q24 3 24 15q0 5 -14 22q-7 8 -9.5 13l-4.5 9q1 4 8 7q5 0 25 -9q10 -6 23 -10.5t25 -7.5q13 -3 20.5 -4
t21.5 -1q31 0 54 9q20 12 20 27q-2 13 -30 56t-28 140v18t-1 25q-1 15 -1 26v20v98q0 61 9 100t30 88q22 48 22 79q0 70 -64 79zM35 885q-6 6 -17 6q-8 0 -17 -4.5t-11 -7.5q-15 -13 -18 -28q-2 -25 16 -42.5t44 -19.5h9q27 0 44 11q18 13 18 33q0 19 -27 28q-26 11 -41 24z
M310 885q-8 6 -18 6q-8 0 -17 -4.5t-12 -7.5q-14 -14 -17 -28q-3 -25 14 -42q20 -19 47 -20h8q26 0 43 11q18 13 18 33t-26 29t-40 23z" />
    <glyph glyph-name="Odieresis" unicode="&#xd6;" horiz-adv-x="800" 
d="M332 743l-51 -35q-40 -28 -76 -70q35 -5 50 -14t32 -23l33 31q21 21 67 37q59 -10 155 -97q95 -86 110 -148l21 -80q4 -12 4 -44q0 -45 -17 -86t-49 -64t-72 -35.5t-88 -12.5q-58 0 -119.5 23.5t-116.5 69.5q-53 46 -91 120q-37 73 -37 129q0 37 12 54l18 21q6 6 14 9
q-10 -10 -18 -24t-11 -27l-4 -21l-1 -19q0 -17 11 -47l21 -48l27 88q14 42 30 71t29 27q16 -3 19.5 -15t3.5 -41v-11q0 -29 5 -54q6 -21 20 -32t28 -11q17 2 29 12q15 15 23 38q19 48 36 48q8 -1 12 -5l8 -5q2 3 2.5 5.5t0.5 10.5q-1 13 -10 25q-11 8 -18 8l-16 -7
q-13 -7 -28 -47q-9 -22 -15 -29.5t-12 -3.5t-6 23q0 2 0.5 5.5t1.5 8.5v13v14l2 34l-3 32q-5 20 -14 38.5t-32 30.5q-22 14 -51 14q-18 0 -36.5 -6t-35.5 -15q-38 -21 -59 -53q-17 -29 -23 -46t-6 -57q0 -49 19 -103q-2 -12 -2 -20v-17l-1 -42q0 -24 2 -43t5 -39
q4 -19 10 -37t16 -35q25 -49 59 -75q34 -25 83 -40q48 -16 144 -16q72 0 143 13.5t126 46.5q56 33 84 97.5t28 140.5q0 22 -2 41t-5 40q-8 42 -23.5 85t-44.5 89q-21 35 -52 72t-67.5 70t-77 60t-81.5 41l-38 -19zM263 860q-7 7 -18 7q-14 -1 -29 -13q-14 -14 -17 -26
q-3 -26 16 -44q19 -17 33 -18l22 -2q21 0 41 12q19 13 19 34q0 18 -26 26q-28 11 -41 24zM530 870q-8 5 -17 5q-15 0 -29 -11q-14 -14 -17 -27q-3 -26 15.5 -44.5t44.5 -18.5h8q24 0 43 12.5t19 31.5q0 18 -26 27q-26 10 -41 25zM134 168l-10 26q-2 6 -2 14q5 -1 28 -39
q45 -62 84 -84q39 -21 102 -42q-68 0 -121 29q-53 30 -81 96z" />
    <glyph glyph-name="Udieresis" unicode="&#xdc;" horiz-adv-x="914" 
d="M86 670q-8 -17 -10 -24.5t-4 -21.5l-15 -88q-5 -32 -7.5 -65.5t-2.5 -70.5q0 -97 18 -143q19 -47 72 -129q52 -82 122 -117q70 -33 132 -33q65 0 119 26l87 68l41 -22q15 -8 35 -32q21 -21 35 -21q13 0 17 19l7 54q7 34 7 129q0 14 -1.5 36t-3.5 53t-3 55.5t-1 42.5
q-11 109 -21 168l-14 79q0 6 3 15l28 -9q12 -4 31 -4l39 5q27 6 35 18q4 6 9 19t10 33q9 20 16 20l17 3l14 2l-8 16q-9 16 -24 16q-23 0 -32 -23q-11 -33 -25 -46.5t-36 -13.5q-17 0 -55 11l-74 26q-56 14 -66 14q-9 0 -9 -5l9 -21l24 -50q15 -33 24 -88q10 -49 10 -115
q0 -61 -10.5 -114.5t-30.5 -104.5q-41 -102 -80 -131q-21 -16 -36 -25.5t-29 -14.5t-22.5 -6t-26.5 -1q-68 0 -126 46q-59 47 -64 85q43 -47 87 -66q45 -20 131 -20h38q28 0 45 9q15 12 38 51q-148 0 -179 3q-32 3 -87 33q-56 32 -102 127q-24 48 -34.5 94t-10.5 92
q0 71 20 100q21 30 37.5 36t40.5 6l19 -2l31 -1q20 0 34 9q7 4 12.5 12.5t9.5 18t7.5 18.5t6.5 15l10 15q-2 6 -8 8q-5 3 -10 3q-10 0 -37 -18t-41 -15q-21 7 -43 18q-14 10 -29 14t-37 4q-23 0 -39.5 -16.5t-33.5 -67.5zM302 885q-8 6 -17 6t-18 -4.5t-12 -7.5
q-14 -14 -17 -28q-3 -25 15.5 -42.5t45.5 -19.5h9q26 0 43 11q19 13 19 33q0 19 -27 28q-28 11 -41 24zM576 885q-6 6 -17 6q-9 0 -18 -4.5t-11 -7.5q-15 -13 -18 -28q-2 -26 15 -42q20 -18 46 -20h9q26 0 43 11q18 13 18 33t-27 29q-26 9 -40 23zM670 201q19 47 23 81
l7 -129l-4 -43l-54 29z" />
    <glyph glyph-name="dagger" unicode="&#x2020;" horiz-adv-x="914" 
 />
    <glyph glyph-name="ellipsis" unicode="&#x2026;" horiz-adv-x="800" 
 />
    <glyph glyph-name="c128" unicode="&#xe002;" horiz-adv-x="886" 
 />
    <glyph glyph-name="nonbreakingspace" unicode="&#xe003;" horiz-adv-x="476" 
 />
    <glyph glyph-name="FL261" unicode="&#xe004;" horiz-adv-x="814" 
d="M477 765l-285 -8q-6 -4 -17 -13l-21 -18l20 -40q8 -20 14.5 -54.5t11.5 -82.5t7.5 -121.5t2.5 -174.5q0 -54 -2 -88.5t-5 -51.5q-7 -34 -27 -34q-13 2 -20 25q-7 24 -25.5 32t-37.5 8q-28 0 -42.5 -14.5t-14.5 -28.5q1 -14 5 -23l20 -28q-13 7 -22 7q-22 0 -22 -26
q0 -21 13.5 -30.5t26.5 -9.5q16 0 27.5 11t11.5 28q0 9 -11 34q-11 27 -11 42q0 16 17 19q22 0 22 -25l-4 -39q0 -26 13 -42.5t34 -16.5l155 3l-7 295l205 134q7 5 9 7.5t4 5.5q0 5 -12 13l-18 14q-9 7 -24 14l-55 -38l-119 -75l-1 247l9 76q43 6 88 6l103 1q57 0 80 -20
t23 -49q-1 -8 -2 -15.5t-3 -14.5q-3 -12 -19 -37q-15 -25 -38 -25q-9 1 -32 12q-6 3 -16.5 9t-31.5 14q-29 11 -49 14q-24 -14 -50 -27t-54 -26q109 -11 171 -39q62 -27 123 -110q60 -82 83.5 -144t23.5 -110q0 -57 -23 -69q-24 -11 -35 -11q-22 0 -52 41q-29 42 -60 42
q-16 0 -25 -4.5t-13 -12t-4.5 -18t-0.5 -22.5q-33 -4 -30 -29q0 -18 8.5 -23t18.5 -5q11 0 22 7t14 16l3 13q0 9 -6 26l-6 21q0 9 12 12q25 4 42 -66q18 -68 54 -82q37 -14 47 -14l10 1l15 1q42 7 74 39t32 116q0 54 -18 112t-58 121q-23 35 -38.5 56.5t-23.5 31.5l-55 58
q119 95 119 175v12q-13 70 -73 76q-30 4 -73.5 5.5t-101.5 1.5z" />
  </font>
</defs>
</svg>
