<?xml version="1.0" encoding="utf-8"?>
<!-- Generator: Adobe Illustrator 25.0.0, SVG Export Plug-In . SVG Version: 6.00 Build 0)  -->
<svg version="1.1" id="Capa_1" xmlns="http://www.w3.org/2000/svg" xmlns:xlink="http://www.w3.org/1999/xlink" x="0px" y="0px"
	 viewBox="0 0 300 400" style="enable-background:new 0 0 300 400;" xml:space="preserve">
<style type="text/css">
	.st0{fill:#EFD5A0;}
	.st1{fill:#FFFFFF;}
	.st2{fill:#F7DFB5;}
	.st3{fill:#F4E6D0;}
</style>
<g>
	<rect x="36.5" y="24.5" class="st0" width="104" height="150"/>
	<path class="st1" d="M140,25v149H37V25H140 M141,24H36v151h105V24L141,24z"/>
</g>
<g>
	<rect x="103.5" y="119.5" class="st2" width="104" height="150"/>
	<path class="st1" d="M207,120v149H104V120H207 M208,119H103v151h105V119L208,119z"/>
</g>
<g>
	<rect x="173.5" y="220.5" class="st3" width="104" height="150"/>
	<path class="st1" d="M277,221v149H174V221H277 M278,220H173v151h105V220L278,220z"/>
</g>
<g>
	<g>
		<path class="st1" d="M291.23,342.52c-18.32,0-36.65-0.02-54.97,0c-17.83,0.02-35.63,1.5-53.47,1.3
			c-16.01-0.18-31.78-2.22-47.29-6.18c-15.15-3.87-29.98-9.26-42.93-18.16c-6.72-4.62-12.93-9.96-18.62-15.81
			c-5.34-5.49-9.97-11.65-12.1-19.11c-3.97-13.88,1.91-28.47,9.9-39.78c14.45-20.43,39.88-28.08,63.42-31.92
			c12.05-1.96,24.22-3,36.37-4.2c17.48-1.73,35.08-1.93,52.55-3.83c7.58-0.83,15.56-1.57,22.79-4.14c4.89-1.74,9.52-4.47,12.79-8.57
			c6.5-8.16,6.42-19.19,4.9-29.01c-0.92-5.92-2.35-11.82-4.15-17.53c-1.42-4.5-3.3-9.06-6.75-12.39c-3.82-3.69-9.12-5.46-14.29-6.18
			c-2.02-0.28-4.09-0.13-6.12-0.02c-2.64,0.14-5.28,0.33-7.92,0.44c-2.4,0.1-4.87,0.21-7.26-0.09c-1.63-0.2-2.64-0.42-3.25-1.98
			c-0.82-2.08-0.61-4.63-0.43-6.8c0.24-2.9,0.76-5.77,1.27-8.63c0.89-4.99,1.61-9.71,0.59-14.75c-1.05-5.16-3.66-9.85-7.13-13.77
			c-7.34-8.29-18.04-13.24-28.41-16.55c-5.04-1.61-10.21-2.85-15.43-3.72c-8.49-1.4-17.09-1.49-25.65-0.87
			c-8.84,0.64-17.63,1.86-26.43,2.84c-9.11,1.02-18.22,2.05-27.33,3.05c-9.06,0.99-18.13,2-27.21,2.82
			c-8.78,0.8-17.58,1.38-26.31,2.65c-3.83,0.56-7.66,1.24-11.43,2.12c-3.26,0.77-6.33,2.05-8.46,4.74c-1.19,1.5,0.92,3.63,2.12,2.12
			c2.33-2.94,5.72-3.69,9.22-4.42c4.21-0.88,8.44-1.6,12.71-2.12c8.8-1.09,17.66-1.63,26.48-2.5c18.05-1.8,36.08-3.86,54.11-5.89
			c16.74-1.89,33.52-4.38,50.27-1.12c10.67,2.08,21.42,5.51,30.63,11.41c8.87,5.68,15.98,14.31,15.86,25.31
			c-0.06,5.09-1.62,10.18-2.24,15.22c-0.47,3.8-1.3,10.25,2.52,12.74c1.58,1.03,3.72,1.14,5.54,1.23c2.56,0.13,5.13,0.01,7.69-0.13
			c4.77-0.25,9.65-0.89,14.09,0.1c4.67,1.04,9.11,3.07,11.97,7.04c3.04,4.22,4.37,9.5,5.67,14.46c2.64,10.07,5.23,21.64,1.77,31.84
			c-1.49,4.39-4.36,8.15-8.2,10.74c-5.44,3.67-11.91,4.92-18.28,5.94c-17.36,2.77-34.98,3.05-52.48,4.32
			c-12.93,0.94-25.91,2.21-38.76,3.91c-23.74,3.15-49.46,8.8-67.03,26.31c-4.66,4.65-8.48,10.03-11.59,15.81
			c-3.39,6.31-5.96,13.11-6.75,20.26c-0.75,6.8,0.41,13.62,3.25,19.83c3.27,7.15,8.66,12.98,14.29,18.35
			c5.73,5.47,11.96,10.46,18.63,14.75c6.5,4.17,13.44,7.47,20.65,10.22c14.39,5.49,29.57,9.08,44.82,11.07
			c17.01,2.22,34.19,1.58,51.28,0.91c18.06-0.71,36.1-0.68,54.17-0.68c8.79,0,17.58,0,26.36,0
			C293.16,345.52,293.16,342.52,291.23,342.52L291.23,342.52z"/>
	</g>
</g>
<g>
	<g>
		<path class="st1" d="M62.62,3.66c0.04,41.08,5.91,81.81,8.48,122.75c0.64,10.23,1.08,20.48,1.16,30.73
			c0.07,9.26-0.53,18.45-1.22,27.67c-0.71,9.4-1.4,18.84-1.01,28.27c0.35,8.44,1.11,17.82,5.42,25.26c2.3,3.98,4.28,7.65,5.01,12.25
			c0.67,4.23,0.71,8.58,0.88,12.85c0.31,7.63-0.9,15.25-0.17,22.87c0.69,7.15,3.23,14.02,9.54,17.99
			c5.99,3.77,13.44,4.69,20.35,5.29c6.07,0.53,11.24-0.99,14.94-6.02c1.86-2.53,3.21-5.42,4.57-8.24c2.07-4.31,4.16-8.61,6.25-12.9
			c8.33-17.09,17.05-34.54,21.55-53.11c4.47-18.42,3.3-37.6,3.38-56.38c0.04-9.64,0.39-19.26,2.14-28.77
			c0.88-4.8,1.98-9.55,2.97-14.33c0.71-3.45,1.13-6.96,1.94-10.39c0.75-3.15,1.84-6.71,4.57-8.72c-0.61-0.08-1.21-0.16-1.82-0.23
			c7.77,7.21,10.4,18.2,17.71,25.81c7.74,8.06,18.65,9.34,28.5,13.44c4.21,1.75,7.95,4.12,10.24,8.18c1.93,3.42,2.61,7.4,2.71,11.29
			c0.2,8.36-2.03,16.6-4.22,24.59c-6.83,24.9-10.56,50.66-8.61,76.5c0.7,9.32,0.51,18.81,2.01,28.05
			c1.35,8.26,5.55,17.36,15.36,16.6c5-0.39,9.61-2.43,14.44-3.57c5.77-1.36,10.88,2.49,15.06,6.02c2.24,1.9,4.37,3.93,6.5,5.96
			c1.81,1.72,3.69,3.36,5.26,5.31c2.98,3.68,4.97,8.12,6.03,12.72c2.09,9.09,0.55,19.13-4.78,26.86
			c-2.98,4.31-7.23,8.59-12.21,10.47c-3.9,1.47-8.01,1.21-11.83-0.38c-8.67-3.59-15.21-11.8-20.95-18.89
			c-6.49-8.01-12.64-16.08-20.69-22.63c-15.72-12.78-36.23-19.92-56.55-18.81c-20.16,1.1-39,9.88-55.64,20.82
			c-17.06,11.21-32.35,24.85-47.56,38.39c-3.43,3.05-6.87,6.11-10.33,9.12c-1.46,1.27,0.67,3.38,2.12,2.12
			c15.31-13.29,30.07-27.25,46.36-39.37c16.42-12.21,34.75-23.11,55.12-26.89c20.58-3.81,42.26,1.18,59.44,13.05
			c8.72,6.03,15.65,13.74,22.18,22.01c5.98,7.58,12.13,15.59,20.22,21.04c7.15,4.82,15.62,6.03,23.12,1.21
			c8.38-5.38,14.01-14.64,15.45-24.42c1.34-9.16-0.5-18.96-5.88-26.59c-3-4.27-7.15-7.76-11-11.25c-3.98-3.6-8.61-7.69-13.99-8.89
			c-5.02-1.12-9.96,1.36-14.73,2.6c-4.42,1.15-9.22,2-12.78-1.57c-3.15-3.16-4.19-7.83-4.86-12.08c-0.76-4.8-0.93-9.69-1.11-14.54
			c-0.44-11.57-1.6-23.03-1.13-34.63c0.53-13.18,2.42-26.27,5.28-39.14c2.18-9.78,5.46-19.36,7.07-29.26
			c1.28-7.85,1.74-16.81-2.58-23.87c-5.22-8.52-15.88-10.38-24.65-13.34c-5.31-1.79-10.3-4.24-14.23-8.32
			c-3.8-3.94-6.31-8.91-8.95-13.65c-2.44-4.38-5.06-8.73-8.76-12.17c-0.45-0.41-1.28-0.63-1.82-0.23
			c-5.44,4.02-6.21,11.4-7.26,17.58c-1.54,9.01-4,17.81-4.97,26.92c-1.98,18.59-0.07,37.35-1.29,55.98
			c-0.61,9.29-2.15,18.35-4.92,27.24c-2.87,9.21-6.56,18.14-10.55,26.91c-3.95,8.68-8.2,17.21-12.36,25.79
			c-1.65,3.41-3.2,6.9-5.04,10.22c-1.29,2.33-2.79,4.72-5.05,6.22c-2.47,1.64-5.45,1.88-8.34,1.7c-3.47-0.22-6.97-0.66-10.37-1.39
			c-7.26-1.57-13.72-4.95-16.19-12.38c-2.41-7.22-1.55-15.14-1.25-22.6c0.16-3.83,0.03-7.61-0.13-11.44
			c-0.18-4.17-0.4-8.43-1.51-12.48c-1.09-4-3.41-7.28-5.32-10.89c-2.07-3.89-2.82-8.47-3.43-12.78c-1.32-9.22-1.08-18.62-0.53-27.89
			c0.54-9.11,1.46-18.19,1.8-27.31c0.37-9.7,0.04-19.45-0.4-29.14c-1.79-39.99-7.61-79.7-8.88-119.73c-0.16-5-0.24-10-0.25-15.01
			C65.62,1.73,62.62,1.73,62.62,3.66L62.62,3.66z"/>
	</g>
</g>
<g>
	<g>
		<path class="st1" d="M90.32,212.7c0-14.49,0-28.98,0-43.47c0-7.16,0-14.32,0-21.48c0-6.83,0.21-13.69-0.17-20.52
			c-0.18-3.24-0.43-6.48-0.42-9.73c0.01-2.61,0.08-5.37,0.92-7.86c1.2-3.59,4.27-6.15,7.45-7.98c7.24-4.15,15.77-5.56,23.78-7.56
			c14.76-3.69,30.06-5.11,45.25-4.6c1.93,0.06,1.93-2.94,0-3c-13.91-0.47-27.92,0.7-41.52,3.65c-4.53,0.98-9.05,2.12-13.55,3.25
			c-4.39,1.11-8.76,2.41-12.88,4.33c-3.72,1.73-7.28,4.1-9.65,7.52c-3.01,4.34-2.93,10.06-2.75,15.13c0.11,3.28,0.4,6.56,0.5,9.84
			c0.11,3.51,0.04,7.03,0.04,10.54c0,7.33,0,14.66,0,21.98c0,16.65,0,33.31,0,49.96C87.32,214.63,90.32,214.63,90.32,212.7
			L90.32,212.7z"/>
	</g>
</g>
</svg>
